<svg xmlns="http://www.w3.org/2000/svg" width="30.811" height="32.073" viewBox="0 0 30.811 32.073">
  <g id="noun-metallurgy-3995618" transform="translate(-87.48 -6.733)">
    <path id="Path_117" data-name="Path 117" d="M207.227,70.321a1.727,1.727,0,0,0,1.08.376,1.681,1.681,0,0,0,.206-.011,1.747,1.747,0,1,0-1.286-.365Zm.378-1.927a.886.886,0,0,1,.6-.335.921.921,0,0,1,.106-.006.9.9,0,1,1-.708.341Z" transform="translate(-112.096 -56.923)" fill="#fff"/>
    <path id="Path_118" data-name="Path 118" d="M269.217,357.293a5.472,5.472,0,0,0-.062-2.341.421.421,0,0,0-.411-.325h0a.427.427,0,0,0-.413.327,2.629,2.629,0,0,1-1.974,1.938l-.261.058a1.413,1.413,0,0,0-1.028,1.929,1.407,1.407,0,0,0,1.04.841,2.32,2.32,0,0,0,.466.049,2.408,2.408,0,0,0,1.675-.721,3.449,3.449,0,0,0,.969-1.755Zm-2.94,1.6a.555.555,0,0,1-.427-.336.579.579,0,0,1,.158-.652.6.6,0,0,1,.27-.125l.261-.058a3.466,3.466,0,0,0,1.924-1.186,3.3,3.3,0,0,1-.071.575,2.608,2.608,0,0,1-.726,1.326,1.51,1.51,0,0,1-1.388.456Z" transform="translate(-167.065 -327.479)" fill="#fff"/>
    <path id="Path_119" data-name="Path 119" d="M469.554,199.535a3.063,3.063,0,0,1,2.414,2.2l.083.3a1.578,1.578,0,0,0,.4.7,1.6,1.6,0,0,0,1.128.471,1.533,1.533,0,0,0,.674-.154,1.557,1.557,0,0,0,.867-1.2,2.642,2.642,0,0,0-.894-2.369,3.913,3.913,0,0,0-2.048-.986,6.186,6.186,0,0,0-2.669.221.447.447,0,0,0-.336.463.388.388,0,0,0,.385.361Zm2.479-.21a3.067,3.067,0,0,1,1.609.768,1.8,1.8,0,0,1,.636,1.628.7.7,0,0,1-.4.563.729.729,0,0,1-.835-.151.766.766,0,0,1-.179-.332l-.083-.3a3.9,3.9,0,0,0-1.617-2.219A3.9,3.9,0,0,1,472.033,199.325Z" transform="translate(-359.287 -180.449)" fill="#fff"/>
    <path id="Path_120" data-name="Path 120" d="M501.775,334.833a.428.428,0,0,0,.215.059.423.423,0,0,0,.366-.209,5.232,5.232,0,0,0,.082-5.351.424.424,0,0,0-.748.4,4.366,4.366,0,0,1-.065,4.522.424.424,0,0,0,.15.58Z" transform="translate(-389.786 -303.456)" fill="#fff"/>
    <path id="Path_121" data-name="Path 121" d="M118.253,32.828c-.183-1.181-2.111-1.832-3.569-2.152a7.149,7.149,0,0,0-.383-5.115,10.54,10.54,0,0,0-4.017-4.628l-.273-.172a14.759,14.759,0,0,0-2.227-1.094c.03-.271.061-.542.085-.821.374-4.324-.128-8.778-1.81-8.924l-1.979-.171a1.075,1.075,0,0,0-.729.209l-4.306.113L98.7,7.109a.422.422,0,0,0-.158-.283.407.407,0,0,0-.312-.089l-5.194.606a.424.424,0,0,0-.372.469l.283,2.422-2.987.078c-1.745.068-2.316,6.1-2.376,6.791s-.532,6.731,1.18,7.1l13.145,2.645a1.106,1.106,0,0,0,.666.326l1.979.172.037,0a.416.416,0,0,0,.177-.044c.936-.119,1.621-1.513,2.084-2.977a6.6,6.6,0,0,1,.648,2.735,4.537,4.537,0,0,1-.182,1.4,5.357,5.357,0,0,0-.271,1.582v.181c0,.029.009.058.011.087-2.962.29-5.972,1.131-5.972,2.688,0,3.2,3.858,5.8,8.6,5.8s8.6-2.6,8.6-5.8a.421.421,0,0,0-.039-.173ZM105.971,10.767h.016c.583.051,1.477,2.923,1.038,8.006-.017.2-.04.388-.06.581-.3-.1-.62-.176-.931-.26.013-.134.028-.267.039-.4a19.277,19.277,0,0,0-.54-7.6c.167-.214.318-.328.437-.328Zm-.742,7.854c-.007.083-.016.164-.024.247a16.418,16.418,0,0,0-1.625-.245c0-.049.006-.095.011-.144a21.292,21.292,0,0,1,1.375-6.355,21.865,21.865,0,0,1,.264,6.5ZM97.908,7.628l.5,4.3a2.133,2.133,0,0,1-1.873,2.367h0l-.11.014a2.134,2.134,0,0,1-2.368-1.872l-.5-4.3ZM88.952,23.379c-.363-.2-.849-2.449-.524-6.2s1.188-5.882,1.559-6.017l3.058-.08.169,1.45a2.984,2.984,0,0,0,2.957,2.638,3.139,3.139,0,0,0,.352-.021l.112-.014a2.982,2.982,0,0,0,2.615-3.307l-.106-.907,3.455-.09a8.364,8.364,0,0,0-.678,1.5,25.051,25.051,0,0,0-1.156,5.925,25.008,25.008,0,0,0,.125,6.016,8.2,8.2,0,0,0,.413,1.594Zm13.7,2.953c-.224-.02-.655-.623-.922-2.2a24.24,24.24,0,0,1-.114-5.821,24.15,24.15,0,0,1,1.11-5.7c.533-1.513,1.048-2.015,1.286-2.014l.811.07c-.014.019-.028.043-.042.063a.416.416,0,0,0-.113.168c-.965,1.493-1.657,4.491-1.918,7.506s-.094,6.093.6,7.729a.416.416,0,0,0,.088.187c.013.027.025.057.039.083Zm.832-5.66a11.962,11.962,0,0,1,1.327,1.009,16.4,16.4,0,0,1-.95,3.3,17.892,17.892,0,0,1-.377-4.312Zm1.149,5.813c-.121-.011-.254-.149-.387-.4a12.814,12.814,0,0,0,1.286-3.7,9.387,9.387,0,0,1,.72.879c.008.011.013.024.021.035-.626,2.356-1.359,3.167-1.639,3.177Zm2.49-3.4a.409.409,0,0,0-.082-.135c-.037-.054-.063-.114-.1-.168a10.568,10.568,0,0,0-1.317-1.486.422.422,0,0,0-.121-.12,12.935,12.935,0,0,0-1.987-1.5c0-.071.005-.138.009-.21a15.355,15.355,0,0,1,3.331.733,13.964,13.964,0,0,1,2.715,1.283l.26.162a9.7,9.7,0,0,1,3.7,4.252,5.979,5.979,0,0,1-.238,5.8,2.857,2.857,0,0,1-4.439.64,3.035,3.035,0,0,1-.951-2.13v-.156a4.553,4.553,0,0,1,.232-1.336,5.357,5.357,0,0,0,.221-1.661,7.515,7.515,0,0,0-1.228-3.974Zm6.186,9.9a11.582,11.582,0,0,1,3.21.868,17.264,17.264,0,0,1-6.826,1.117,17.279,17.279,0,0,1-6.822-1.115,15.212,15.212,0,0,1,5.244-1.075c.054.058.1.124.155.178a3.7,3.7,0,0,0,2.544,1.014c.052,0,.1,0,.157,0a3.588,3.588,0,0,0,2.337-.984ZM101.935,33c0-.558,1.688-1.5,5.265-1.845a3.878,3.878,0,0,0,.332.814,13.2,13.2,0,0,0-5.452,1.351.507.507,0,0,1-.145-.32Zm7.755,4.956c-3.449,0-6.376-1.447-7.381-3.441,1.585.857,4.492,1.3,7.381,1.3s5.8-.443,7.381-1.3C116.066,36.51,113.138,37.957,109.689,37.957Zm7.615-4.64a9.96,9.96,0,0,0-3.362-1.092c.019-.03.045-.051.064-.081a6.863,6.863,0,0,0,.358-.666c2.24.473,3.08,1.16,3.08,1.524a.5.5,0,0,1-.14.316Z" fill="#fff"/>
  </g>
</svg>
