<svg xmlns="http://www.w3.org/2000/svg" width="29.417" height="33.376" viewBox="0 0 29.417 33.376">
  <g id="noun-polymer-4543365" transform="translate(-132.942 -32.567)">
    <path id="Path_129" data-name="Path 129" d="M241.552,154.6a.255.255,0,0,1-.126-.034l-4.99-2.881a.253.253,0,0,1,.253-.438l4.99,2.882a.253.253,0,0,1-.126.472Zm-12.924,0a.253.253,0,0,1-.127-.471l4.991-2.882a.253.253,0,0,1,.253.439l-4.99,2.881a.25.25,0,0,1-.126.034Zm-1.471,8.311a.252.252,0,0,1-.253-.253V156.9a.252.252,0,1,1,.5,0v5.763a.252.252,0,0,1-.252.253Zm15.866,0a.253.253,0,0,1-.253-.253V156.9a.253.253,0,1,1,.506,0v5.763a.253.253,0,0,1-.253.253Zm-9.405,5.429a.247.247,0,0,1-.126-.034l-4.99-2.881a.253.253,0,1,1,.253-.438l4.991,2.881a.253.253,0,0,1-.127.471Zm2.944,0a.253.253,0,0,1-.127-.471l4.991-2.881a.253.253,0,1,1,.253.438l-4.99,2.881a.247.247,0,0,1-.126.034Z" transform="translate(-87.477 -110.523)" fill="#fff" stroke="#fff" stroke-width="0.5" fill-rule="evenodd"/>
    <path id="Path_130" data-name="Path 130" d="M322.607,113.407a1.446,1.446,0,1,0,1.446,1.446A1.448,1.448,0,0,0,322.607,113.407Zm0,3.4a1.951,1.951,0,1,1,1.951-1.951,1.953,1.953,0,0,1-1.951,1.951Z" transform="translate(-174.995 -74.759)" fill="#fff" stroke="#fff" stroke-width="0.5" fill-rule="evenodd"/>
    <path id="Path_131" data-name="Path 131" d="M203.31,182.29a1.446,1.446,0,1,0,1.446,1.446A1.447,1.447,0,0,0,203.31,182.29Zm0,3.4a1.952,1.952,0,1,1,1.951-1.952A1.954,1.954,0,0,1,203.31,185.687Z" transform="translate(-63.63 -139.061)" fill="#fff" stroke="#fff" stroke-width="0.5" fill-rule="evenodd"/>
    <path id="Path_132" data-name="Path 132" d="M203.31,320.04a1.446,1.446,0,1,0,1.446,1.446A1.448,1.448,0,0,0,203.31,320.04Zm0,3.4a1.952,1.952,0,1,1,1.951-1.952A1.954,1.954,0,0,1,203.31,323.437Z" transform="translate(-63.63 -267.65)" fill="#fff" stroke="#fff" stroke-width="0.5" fill-rule="evenodd"/>
    <path id="Path_133" data-name="Path 133" d="M322.607,388.92a1.446,1.446,0,1,0,1.446,1.446A1.448,1.448,0,0,0,322.607,388.92Zm0,3.4a1.952,1.952,0,1,1,1.951-1.952,1.954,1.954,0,0,1-1.951,1.952Z" transform="translate(-174.995 -331.949)" fill="#fff" stroke="#fff" stroke-width="0.5" fill-rule="evenodd"/>
    <path id="Path_134" data-name="Path 134" d="M441.9,320.04a1.446,1.446,0,1,0,1.446,1.446A1.448,1.448,0,0,0,441.9,320.04Zm0,3.4a1.952,1.952,0,1,1,1.951-1.952A1.954,1.954,0,0,1,441.9,323.437Z" transform="translate(-286.354 -267.65)" fill="#fff" stroke="#fff" stroke-width="0.5" fill-rule="evenodd"/>
    <path id="Path_135" data-name="Path 135" d="M441.9,182.29a1.446,1.446,0,1,0,1.446,1.446A1.447,1.447,0,0,0,441.9,182.29Zm0,3.4a1.952,1.952,0,1,1,1.951-1.952A1.954,1.954,0,0,1,441.9,185.687Z" transform="translate(-286.354 -139.061)" fill="#fff" stroke="#fff" stroke-width="0.5" fill-rule="evenodd"/>
    <path id="Path_136" data-name="Path 136" d="M346.448,69.555a.253.253,0,0,1-.253-.252V66.179a.253.253,0,1,1,.506,0V69.3a.252.252,0,0,1-.253.252Z" transform="translate(-198.836 -30.907)" fill="#fff" stroke="#fff" stroke-width="0.5" fill-rule="evenodd"/>
    <path id="Path_137" data-name="Path 137" d="M330.995,33.322a.848.848,0,1,0,.848.848A.849.849,0,0,0,330.995,33.322Zm0,2.2a1.354,1.354,0,1,1,1.354-1.354A1.355,1.355,0,0,1,330.995,35.525Z" transform="translate(-183.382)" fill="#fff" stroke="#fff" stroke-width="0.5" fill-rule="evenodd"/>
    <path id="Path_138" data-name="Path 138" d="M487.876,173.129a.253.253,0,0,1-.127-.471l2.706-1.562a.253.253,0,1,1,.253.438L488,173.1a.246.246,0,0,1-.126.034Z" transform="translate(-330.858 -129.052)" fill="#fff" stroke="#fff" stroke-width="0.5" fill-rule="evenodd"/>
    <path id="Path_139" data-name="Path 139" d="M527.413,146.727a.848.848,0,1,0,.221.029A.871.871,0,0,0,527.413,146.727Zm0,2.2a1.353,1.353,0,1,1,.674-.181,1.354,1.354,0,0,1-.674.181Z" transform="translate(-366.739 -105.862)" fill="#fff" stroke="#fff" stroke-width="0.5" fill-rule="evenodd"/>
    <path id="Path_140" data-name="Path 140" d="M490.579,359.908a.253.253,0,0,1-.126-.034l-2.705-1.562a.253.253,0,0,1,.253-.438l2.706,1.562a.253.253,0,0,1-.127.472Z" transform="translate(-330.856 -303.408)" fill="#fff" stroke="#fff" stroke-width="0.5" fill-rule="evenodd"/>
    <path id="Path_141" data-name="Path 141" d="M527.426,373.56a.848.848,0,1,0,.422.113.838.838,0,0,0-.422-.113Zm0,2.2a1.357,1.357,0,1,1,.353-.047,1.38,1.38,0,0,1-.353.047Z" transform="translate(-366.748 -317.611)" fill="#fff" stroke="#fff" stroke-width="0.5" fill-rule="evenodd"/>
    <path id="Path_142" data-name="Path 142" d="M346.448,443.128a.253.253,0,0,1-.253-.253v-3.124a.253.253,0,1,1,.506,0v3.124a.253.253,0,0,1-.253.253Z" transform="translate(-198.836 -379.638)" fill="#fff" stroke="#fff" stroke-width="0.5" fill-rule="evenodd"/>
    <path id="Path_143" data-name="Path 143" d="M330.995,486.974a.848.848,0,1,0,.848.848A.849.849,0,0,0,330.995,486.974Zm0,2.2a1.354,1.354,0,1,1,1.354-1.354A1.355,1.355,0,0,1,330.995,489.177Z" transform="translate(-183.382 -423.484)" fill="#fff" stroke="#fff" stroke-width="0.5" fill-rule="evenodd"/>
    <path id="Path_144" data-name="Path 144" d="M164.354,359.9a.253.253,0,0,1-.127-.472l2.706-1.562a.253.253,0,0,1,.253.438l-2.705,1.562a.253.253,0,0,1-.127.034Z" transform="translate(-28.851 -303.405)" fill="#fff" stroke="#fff" stroke-width="0.5" fill-rule="evenodd"/>
    <path id="Path_145" data-name="Path 145" d="M134.549,373.551a.848.848,0,1,0,.22.029.868.868,0,0,0-.221-.029Zm0,2.2a1.381,1.381,0,0,1-.353-.047,1.345,1.345,0,1,1,.353.047Z" transform="translate(0 -317.602)" fill="#fff" stroke="#fff" stroke-width="0.5" fill-rule="evenodd"/>
    <path id="Path_146" data-name="Path 146" d="M167.062,173.132a.25.25,0,0,1-.126-.034l-2.705-1.562a.253.253,0,1,1,.253-.438l2.706,1.562a.253.253,0,0,1-.127.472Z" transform="translate(-28.854 -129.055)" fill="#fff" stroke="#fff" stroke-width="0.5" fill-rule="evenodd"/>
    <path id="Path_147" data-name="Path 147" d="M133.831,147.139a.847.847,0,1,0,.515-.4.848.848,0,0,0-.515.4Zm.732,1.777a1.354,1.354,0,1,1,1.174-.677,1.342,1.342,0,0,1-1.174.677Z" transform="translate(-0.015 -105.85)" fill="#fff" stroke="#fff" stroke-width="0.5" fill-rule="evenodd"/>
  </g>
</svg>
