<svg xmlns="http://www.w3.org/2000/svg" width="32.622" height="17.136" viewBox="0 0 32.622 17.136">
  <path id="noun-delivery-4573027" d="M101.807,146.71a.56.56,0,0,0,0,1.121h15.508v12.814H110.24a2.753,2.753,0,0,0-5.456,0h-2.412v-2.438a.562.562,0,1,0-1.125,0v3a.563.563,0,0,0,.56.56h3.042a2.746,2.746,0,0,0,5.326,0h10.261a2.744,2.744,0,0,0,5.323,0h2.56a.563.563,0,0,0,.56-.56v-5.224a.568.568,0,0,0-.041-.211l-2.106-5.219h0a.563.563,0,0,0-.519-.353H118.44v-2.932a.563.563,0,0,0-.561-.56Zm-2.45,3.558a.562.562,0,0,0,0,1.125h8.487a.562.562,0,1,0,0-1.125Zm19.084,1.059h7.39l1.652,4.1h-9.043Zm-21.62,2.528a.561.561,0,1,0,0,1.122h11.023a.561.561,0,1,0,0-1.122Zm21.62,2.695h9.313v4.095h-1.931a2.75,2.75,0,0,0-5.45,0h-1.931Zm-10.971,2.836h.042a1.611,1.611,0,1,1-.042,0Zm15.587,0h.042a1.611,1.611,0,1,1-.042,0Z" transform="translate(-96.256 -146.71)" fill="#fff"/>
</svg>
