<svg xmlns="http://www.w3.org/2000/svg" width="29.873" height="28.032" viewBox="0 0 29.873 28.032">
  <g id="Group_368" data-name="Group 368" transform="translate(-4347.916 -4868.231)">
    <g id="noun-round-2038901" transform="translate(4347.916 4881.531)">
      <path id="Path_537" data-name="Path 537" d="M77.333,0A7.366,7.366,0,1,1,70,7.333,7.336,7.336,0,0,1,77.333,0Z" transform="translate(-70)" fill="#1a252d" fill-rule="evenodd"/>
    </g>
    <g id="noun-round-2038901-2" data-name="noun-round-2038901" transform="translate(4363.057 4881.122)">
      <path id="Path_538" data-name="Path 538" d="M77.333,0A7.366,7.366,0,1,1,70,7.333,7.336,7.336,0,0,1,77.333,0Z" transform="translate(-70)" fill="#1a252d" fill-rule="evenodd"/>
    </g>
    <g id="noun-round-2038901-3" data-name="noun-round-2038901" transform="translate(4355.077 4868.231)">
      <path id="Path_539" data-name="Path 539" d="M77.333,0A7.366,7.366,0,1,1,70,7.333,7.336,7.336,0,0,1,77.333,0Z" transform="translate(-70)" fill="#9d612b" fill-rule="evenodd"/>
    </g>
  </g>
</svg>
