<svg xmlns="http://www.w3.org/2000/svg" width="40" height="40" viewBox="0 0 40 40">
  <g id="Group_101" data-name="Group 101" transform="translate(-0.307 -0.306)">
    <rect id="Rectangle_25" data-name="Rectangle 25" width="40" height="40" rx="20" transform="translate(0.307 0.306)" fill="#9d612b"/>
    <g id="noun-corporate-headquarter-1248033" transform="translate(-89.917 -69.205)">
      <path id="Path_272" data-name="Path 272" d="M122.041,98.408h-1.9V86.048h-2.717v-1.63H112.8v1.63h-2.717V98.425h-.815V79.8h-8.965V98.408h-1.9a.407.407,0,0,0,0,.815h23.634a.407.407,0,0,0,0-.815Zm-15.213-2.445h-4.075a.407.407,0,0,1,0-.815h4.075a.407.407,0,1,1,0,.815Zm0-3.26h-4.075a.407.407,0,0,1,0-.815h4.075a.407.407,0,0,1,0,.815Zm0-3.26h-4.075a.407.407,0,0,1,0-.815h4.075a.407.407,0,1,1,0,.815Zm0-3.26h-4.075a.407.407,0,0,1,0-.815h4.075a.407.407,0,0,1,0,.815Zm0-3.26h-4.075a.407.407,0,0,1,0-.815h4.075a.407.407,0,1,1,0,.815ZM117.151,92.7h-4.075a.407.407,0,0,1,0-.815h4.075a.407.407,0,0,1,0,.815Zm0-3.26h-4.075a.407.407,0,1,1,0-.815h4.075a.407.407,0,0,1,0,.815Z" transform="translate(0 0)" fill="#f0edea"/>
    </g>
  </g>
</svg>
