<svg xmlns="http://www.w3.org/2000/svg" width="40" height="40" viewBox="0 0 40 40">
  <g id="Group_100" data-name="Group 100" transform="translate(-0.307)">
    <rect id="Rectangle_24" data-name="Rectangle 24" width="40" height="40" rx="20" transform="translate(0.307 0)" fill="#9d612b"/>
    <g id="noun-call-1944796" transform="translate(11.056 11.101)">
      <path id="Path_212" data-name="Path 212" d="M118.927,45.528l-2.652-2.653a1.82,1.82,0,0,0-1.294-.53,1.914,1.914,0,0,0-1.361.567l-1.07,1.069a11.97,11.97,0,0,1-5.243-5.241l1.071-1.07a1.882,1.882,0,0,0,.036-2.656l-2.652-2.652a1.816,1.816,0,0,0-1.294-.531,1.915,1.915,0,0,0-1.362.569l-.747.752a.5.5,0,0,0-.122.2,4.834,4.834,0,0,0-.584,1.074l0,.005a4.986,4.986,0,0,0-.3,1.219c-.371,3.074,1,5.846,4.719,9.569a17.524,17.524,0,0,0,5.785,4,9.381,9.381,0,0,0,3.412.742,3.658,3.658,0,0,0,.369-.016h.007a4.99,4.99,0,0,0,1.227-.308,4.805,4.805,0,0,0,1.09-.6.5.5,0,0,0,.177-.112l.757-.741,0,0a1.885,1.885,0,0,0,.035-2.657Z" transform="translate(-101.287 -31.831)" fill="#f0edea"/>
    </g>
  </g>
</svg>
