<svg xmlns="http://www.w3.org/2000/svg" width="54" height="54" viewBox="0 0 54 54">
  <g id="Group_192" data-name="Group 192" transform="translate(-188.999 -1735)">
    <g id="Ellipse_67" data-name="Ellipse 67" transform="translate(188.999 1735)" fill="none" stroke="#707070" stroke-width="1" opacity="0.15">
      <circle cx="27" cy="27" r="27" stroke="none"/>
      <circle cx="27" cy="27" r="26.5" fill="none"/>
    </g>
    <g id="noun-link-5303444" transform="translate(64.044 1681.437)">
      <path id="Path_335" data-name="Path 335" d="M145.884,264.018a6.06,6.06,0,0,0,4.3-1.778l3.224-3.224h0a1.013,1.013,0,0,0-1.433-1.433l-3.224,3.224h0a4.053,4.053,0,0,1-5.731-5.731l3.224-3.224a1.013,1.013,0,0,0-1.433-1.433l-3.224,3.224h0a6.076,6.076,0,0,0,4.3,10.374Z" transform="translate(0 -169.306)" fill="#9d612b"/>
      <path id="Path_336" data-name="Path 336" d="M323.848,72.16l-3.224,3.224h0a1.013,1.013,0,0,0,1.433,1.433l3.224-3.224h0a4.053,4.053,0,0,1,5.731,5.731l-3.224,3.224a1.013,1.013,0,0,0,1.433,1.433l3.224-3.224h0a6.078,6.078,0,0,0-8.6-8.6Z" transform="translate(-170.085 0)" fill="#9d612b"/>
      <path id="Path_337" data-name="Path 337" d="M253.506,198.314a1.013,1.013,0,0,0,1.433,0l8.935-8.935a1.013,1.013,0,0,0-1.433-1.433l-8.935,8.935a1.013,1.013,0,0,0,0,1.432Z" transform="translate(-106.84 -110.46)" fill="#9d612b"/>
    </g>
  </g>
</svg>
