<svg xmlns="http://www.w3.org/2000/svg" width="14.809" height="16.983" viewBox="0 0 14.809 16.983">
  <g id="Group_11" data-name="Group 11" transform="translate(0.972 0.123) rotate(3)" opacity="0.59">
    <g id="Group_10" data-name="Group 10">
      <path id="Path_20" data-name="Path 20" d="M10.481.564c7.133,3.639-.49,18.6-7.625,14.964S3.346-3.069,10.481.564Z" transform="translate(0.462 0.001)" fill="#f0edea" stroke="#956436" stroke-width="0.1"/>
      <path id="Path_21" data-name="Path 21" d="M10.455.562C17.566,4.19,9.96,19.116,2.846,15.493S3.341-3.06,10.455.562Z" transform="translate(0.48 0.02)" fill="none" stroke="#956436" stroke-width="0.1"/>
      <g id="Path_14" data-name="Path 14" transform="translate(0 0)">
        <path id="Path_22" data-name="Path 22" d="M7.912.025a4.874,4.874,0,0,1,5.235,4.4,10.534,10.534,0,0,1-4.532,9.887C2.337,18.255-1.731,12.023.725,6.2,1.918,3.187,4.565.369,7.912.025Zm-6.5,6.311c-2.589,7.257,4.409,10.462,8.773,4.321,1.569-2.227,2.289-5.632.728-7.935A4.086,4.086,0,0,0,5.627,1.591,8.612,8.612,0,0,0,1.411,6.336Z" transform="translate(0 0.001)" fill="#f0edea" stroke="#956436" stroke-width="0.1"/>
        <path id="Path_23" data-name="Path 23" d="M2.935,15.146A5.351,5.351,0,0,1,.04,10.65,10.542,10.542,0,0,1,3.187,2.41c4.677-4.68,10.9-2.225,10,4.609A10.747,10.747,0,0,1,8.27,14.553,5.815,5.815,0,0,1,2.935,15.146ZM7.9.042C3.1.589-.386,6.014.066,10.633c.207,2.6,2.1,4.938,4.849,4.876,2.623-.042,4.92-1.806,6.376-3.884A10.23,10.23,0,0,0,13.178,4.83C12.924,2.061,10.809-.255,7.9.042ZM3.4,13.672A4.27,4.27,0,0,1,.9,10.11,8.662,8.662,0,0,1,3.32,3.266C6.99-.663,12.3.866,11.755,6.611,11.412,10.379,7.495,15.084,3.4,13.672ZM7.556,1.11C3.524,1.456.567,5.979.9,9.835a4.047,4.047,0,0,0,4.152,4.052,7.066,7.066,0,0,0,5.113-3.244,8.5,8.5,0,0,0,1.567-5.429A4.084,4.084,0,0,0,7.556,1.11Z" transform="translate(0.003)" stroke="#956436" stroke-width="0.1"/>
      </g>
      <g id="Path_15" data-name="Path 15" transform="translate(1.551 1.972)">
        <path id="Path_24" data-name="Path 24" d="M.462,4.425A7.161,7.161,0,0,1,4.091.385a3.387,3.387,0,0,1,4.983,2.9A7.179,7.179,0,0,1,7.751,7.994C4.155,13.084-1.686,10.462.462,4.425ZM2.425,7.414c-.464,1.535,1.188,1.756,1.617.374.425-1.5-1.181-1.72-1.617-.374ZM1.841,5.652c.862.136,1.713-1.639.684-1.911C1.689,3.658.887,5.323,1.841,5.652ZM5.725,2.508c.372-1.7-1.692-.994-1.672.279C4.14,3.98,5.543,3.3,5.725,2.508Zm.855,1.656c-1.1-.132-1.912,1.859-.673,2.2,1.149.208,2.008-1.932.673-2.2Z" transform="translate(0.005)" fill="#f0edea" stroke="#956436" stroke-width="0.1"/>
        <path id="Path_25" data-name="Path 25" d="M2.259,10.551a3.5,3.5,0,0,1-2.2-2.918,7.238,7.238,0,0,1,1.893-5.68C4.844-1.337,9.435-.437,9.113,4.4,8.878,7.578,5.748,11.563,2.259,10.551ZM5.723.021C2.332.224-.144,3.965.037,7.182a3.419,3.419,0,0,0,3.353,3.5A5.823,5.823,0,0,0,7.749,7.966,7.2,7.2,0,0,0,9.083,3.559,3.415,3.415,0,0,0,5.723.021ZM2.846,8.714c-1.066-.425-.32-2.381.732-2.217C4.723,6.87,3.936,8.953,2.846,8.714Zm.718-2.178c-1.014-.157-1.732,1.728-.7,2.136C3.908,8.9,4.667,6.894,3.564,6.536Zm2.343-.151C4.643,6.034,5.471,4,6.595,4.141,7.952,4.417,7.077,6.6,5.907,6.386Zm.676-2.2C5.5,4.046,4.7,6.006,5.92,6.344,7.046,6.548,7.888,4.448,6.583,4.181ZM1.843,5.667c-.976-.33-.158-2.032.694-1.947C3.584,3.995,2.72,5.8,1.843,5.667Zm.678-1.913C1.7,3.675.915,5.313,1.855,5.63,2.7,5.761,3.534,4.016,2.521,3.754Zm2.058-.3c-1.138-.269-.262-2.026.649-1.969C6.457,1.67,5.515,3.558,4.579,3.449Zm.636-1.934c-.878-.054-1.72,1.639-.624,1.9C5.493,3.516,6.4,1.7,5.214,1.515Z" transform="translate(0 0.004)" stroke="#956436" stroke-width="0.1"/>
      </g>
    </g>
  </g>
</svg>
