<svg xmlns="http://www.w3.org/2000/svg" width="343.46" height="340.252" viewBox="0 0 343.46 340.252">
  <g id="Group_20" data-name="Group 20" transform="matrix(0.891, -0.454, 0.454, 0.891, -746.875, -27.424)" opacity="0.385">
    <path id="Path_31" data-name="Path 31" d="M647.806,572.987c20.694-1.306,36.026-11.8,48-28.085,14.593,28.989-1.917,63.979-33.728,73.432-18.737,5.569-37.293,3.749-55.738-.548-20.441-4.763-40.659-8.3-62.233,3.048,8.9-27.641,19.1-52.277,36.91-73.018,11.521-13.416,25.358-23.773,42.543-29.028a71.638,71.638,0,0,1,46.278,1.078c16.135,5.831,19.557,15.449,8.862,28.913-6.426,8.09-15.722,13.935-23.894,20.584C652.808,570.986,650.156,571.8,647.806,572.987Z" transform="translate(0 66.16)" fill="none" stroke="#956436" stroke-width="2"/>
    <path id="Path_32" data-name="Path 32" d="M797.833,629.13c-21.932-15.245-43.844-11.44-65.594-8.375-19.777,2.787-39.184,2.834-57.76-5.868-27.8-13.024-39.081-47.765-23.737-73.155,17.66,21.829,30.332,30.708,46.523,31.069-2.429-1.355-4.881-2.672-7.285-4.069-11.254-6.544-19.9-15.548-25.046-27.565-4.451-10.4-1.776-17.5,9.157-21.311,21.581-7.518,42.621-5.517,62.341,6.29,25.716,15.393,39.9,39.641,49.938,66.754C790.442,603.9,793.488,615.276,797.833,629.13Z" transform="translate(68.531 66.128)" fill="none" stroke="#956436" stroke-width="2"/>
    <path id="Path_33" data-name="Path 33" d="M664.436,419.856c.31,20.79,10.966,36.819,23.39,51.95,12.6,15.349,23.047,31.609,26.531,51.738,5.281,30.494-14.9,58.763-45.4,62.785a46.322,46.322,0,0,1-5.49.027c9.5-18.561,13.3-37.094,4.327-56.617-.5,6.735-.008,13.74-1.746,20.139a95.947,95.947,0,0,1-9.734,23.828c-5.546,9.313-13.365,10.467-22.076,3.757-16.771-12.92-25.207-30.592-26.31-51.495-1.636-30.958,11.54-56.569,30.44-79.753,7.582-9.3,15.848-18.043,23.8-27.039Z" transform="translate(43.758 0)" fill="none" stroke="#956436" stroke-width="2"/>
  </g>
</svg>
