<svg xmlns="http://www.w3.org/2000/svg" width="40" height="40" viewBox="0 0 40 40">
  <g id="Group_99" data-name="Group 99" transform="translate(-0.307 -0.306)">
    <rect id="Rectangle_25" data-name="Rectangle 25" width="40" height="40" rx="20" transform="translate(0.307 0.306)" fill="#9d612b"/>
    <g id="noun-mail-4689390" transform="translate(9.093 11.519)">
      <path id="Path_270" data-name="Path 270" d="M179.579,140H162.228a2.779,2.779,0,0,0-2.626,2.9v.4l10.77,5.8h.033a.912.912,0,0,0,.964,0h.033l10.8-5.8v-.4a2.757,2.757,0,0,0-2.626-2.9Z" transform="translate(-159.602 -140)" fill="#f0edea"/>
      <path id="Path_271" data-name="Path 271" d="M170.9,221.4a2.135,2.135,0,0,1-1.13-.33L159.6,215.6v9.436a2.78,2.78,0,0,0,2.626,2.9h17.387a2.779,2.779,0,0,0,2.626-2.9V215.6l-10.173,5.508a2.732,2.732,0,0,1-1.164.294Z" transform="translate(-159.601 -210.646)" fill="#f0edea"/>
    </g>
  </g>
</svg>
