<svg xmlns="http://www.w3.org/2000/svg" width="28.575" height="32.667" viewBox="0 0 28.575 32.667">
  <g id="Group_382" data-name="Group 382" transform="translate(926.946 -4036.677)">
    <path id="Path_20" data-name="Path 20" d="M542.115,170.25c13.708,6.993-.941,35.74-14.654,28.758S528.4,163.268,542.115,170.25Z" transform="translate(-1436.538 3840.683) rotate(3)" fill="#9d612b" stroke="#1a252d" stroke-width="0.3"/>
    <path id="Path_21" data-name="Path 21" d="M542.558,170.747c13.667,6.972-.951,35.657-14.622,28.7S528.887,163.786,542.558,170.747Z" transform="translate(-1436.971 3840.193) rotate(3)" fill="#9d612b" stroke="#9d612b" stroke-width="0.3"/>
    <path id="Path_22" data-name="Path 22" d="M524.517,169.2c5.23-.528,9.3,3.363,10.061,8.452,1.207,6.94-2.827,15.19-8.71,19-12.064,7.583-19.881-4.395-15.162-15.593C513,175.276,518.085,169.86,524.517,169.2Zm-12.494,12.129c-4.975,13.947,8.473,20.106,16.861,8.3,3.016-4.28,4.4-10.823,1.4-15.25-2.152-3.35-6.717-3.9-10.157-2.173A16.551,16.551,0,0,0,512.023,181.327Z" transform="translate(-1424.782 3841.313) rotate(3)" fill="#9d612b" stroke="#9d612b" stroke-width="0.3"/>
    <path id="Path_23" data-name="Path 23" d="M515.036,198.235c-3.367-1.486-5.235-5.1-5.562-8.641a20.26,20.26,0,0,1,6.048-15.835c8.988-8.995,20.955-4.277,19.21,8.857a20.654,20.654,0,0,1-9.441,14.48C522.263,198.923,518.353,199.762,515.036,198.235Zm9.544-29.027c-9.221,1.051-15.924,11.476-15.056,20.353.4,5,4.031,9.49,9.319,9.371,5.041-.082,9.455-3.471,12.254-7.465a19.66,19.66,0,0,0,3.627-13.057C534.235,173.088,530.17,168.637,524.58,169.208Z" transform="translate(-1424.895 3841.416) rotate(3)" fill="#9d612b" stroke="#fff" stroke-width="0.3"/>
    <circle id="Ellipse_142" data-name="Ellipse 142" cx="8" cy="8" r="8" transform="translate(-922 4044)" fill="#fff"/>
    <g id="Path_15" data-name="Path 15" transform="translate(-922.221 4041.259) rotate(3)">
      <path id="Path_24" data-name="Path 24" d="M552.824,231.631a13.762,13.762,0,0,1,6.975-7.763,6.508,6.508,0,0,1,9.577,5.576,13.8,13.8,0,0,1-2.544,9.047C559.922,248.273,548.7,243.233,552.824,231.631Zm3.772,5.745c-.892,2.95,2.283,3.374,3.107.718.816-2.887-2.27-3.306-3.107-.718Zm-1.122-3.386c1.657.261,3.291-3.149,1.314-3.673C555.182,230.157,553.64,233.358,555.474,233.989Zm7.465-6.042c.715-3.262-3.251-1.911-3.214.536C559.892,230.777,562.588,229.469,562.939,227.948Zm1.644,3.183c-2.12-.254-3.675,3.573-1.293,4.236,2.208.4,3.859-3.714,1.293-4.236Z" transform="translate(-551.926 -223.127)" fill="#9d612b" stroke="#1a252d" stroke-width="0.3"/>
      <path id="Path_25" data-name="Path 25" d="M556.129,243.507A6.726,6.726,0,0,1,551.9,237.9a13.911,13.911,0,0,1,3.639-10.916c5.558-6.324,14.381-4.593,13.762,4.7C568.85,237.793,562.836,245.451,556.129,243.507Zm6.657-20.237c-6.517.39-11.275,7.579-10.926,13.762.123,3.523,2.7,6.882,6.443,6.725,3.464-.1,6.458-2.474,8.376-5.219a13.835,13.835,0,0,0,2.564-8.469C569.144,226.525,566.578,223.071,562.787,223.27Zm-5.528,16.706c-2.05-.818-.616-4.575,1.407-4.26C560.865,236.431,559.353,240.436,557.259,239.976Zm1.379-4.185c-1.949-.3-3.329,3.32-1.353,4.105C559.3,240.339,560.758,236.479,558.638,235.791Zm4.5-.29c-2.428-.676-.839-4.579,1.322-4.314C567.07,231.718,565.39,235.913,563.141,235.5Zm1.3-4.237c-2.083-.258-3.616,3.507-1.274,4.157C565.329,235.813,566.949,231.778,564.439,231.264Zm-9.11,2.856c-1.875-.635-.3-3.905,1.333-3.742C558.677,230.907,557.016,234.381,555.33,234.12Zm1.3-3.676c-1.575-.152-3.086,3-1.279,3.606C556.98,234.3,558.58,230.947,556.634,230.444Zm3.955-.586c-2.187-.517-.5-3.894,1.247-3.784C564.2,226.439,562.388,230.067,560.588,229.858Zm1.222-3.717c-1.686-.1-3.306,3.15-1.2,3.646C562.346,229.987,564.088,226.49,561.81,226.142Z" transform="translate(-551.789 -223.222)" fill="#fff" stroke="#fff" stroke-width="0.3"/>
    </g>
  </g>
</svg>
