<svg xmlns="http://www.w3.org/2000/svg" width="24.37" height="32.7" viewBox="0 0 24.37 32.7">
  <g id="Group_345" data-name="Group 345" transform="translate(-737.009 -2311)">
    <path id="Path_434" data-name="Path 434" d="M184.444,52.078l-6.364,6.364h6.364Z" transform="translate(559.331 2259.325)"/>
    <g id="Group_344" data-name="Group 344">
      <path id="Path_433" data-name="Path 433" d="M173.309,79.366H196.4a.65.65,0,0,0,.641-.654V47.32a.65.65,0,0,0-.641-.654H180.2V53.7a.65.65,0,0,1-.641.654h-6.894V78.712A.65.65,0,0,0,173.309,79.366Zm14.93-20.621a.668.668,0,0,1,0,.929l-5.862,5.977a.65.65,0,0,1-.455.19.661.661,0,0,1-.455-.19.668.668,0,0,1,0-.929l5.862-5.978a.637.637,0,0,1,.91,0Zm.071,6.978a1.947,1.947,0,0,1-2.79,0,1.995,1.995,0,1,1,2.8-2.845,2.048,2.048,0,0,1-.006,2.845Zm-6.914-7.05a1.953,1.953,0,0,1,2.79-.007,2.05,2.05,0,0,1,0,2.852,1.955,1.955,0,0,1-2.8,0,2.048,2.048,0,0,1,.006-2.845Zm-4.758,10.392h16.431a.654.654,0,0,1,0,1.308H176.638a.654.654,0,0,1,0-1.308Zm0,4.055h16.431a.654.654,0,0,1,0,1.308H176.638a.654.654,0,0,1,0-1.308Z" transform="translate(564.341 2264.334)" fill="#9d612b"/>
      <rect id="Rectangle_449" data-name="Rectangle 449" width="19" height="19" transform="translate(740 2322)" fill="#9d612b"/>
      <path id="Path_480" data-name="Path 480" d="M456.048,268.905a.9.9,0,0,0,.023-1.808l-6.3-.163-2.525-.063h-.024a.9.9,0,1,0-.022,1.808l2.524.065a2.915,2.915,0,0,1,2.7,2.191l-5.267-.141a.9.9,0,0,0-.046,1.808l5.277.136A3.014,3.014,0,0,1,451.6,274a2.8,2.8,0,0,1-2.017.778l-2.524-.065a.9.9,0,0,0-.672,1.534l6.157,6.348a.9.9,0,0,0,1.3-1.26l-4.616-4.749h.306a4.612,4.612,0,0,0,3.3-1.28,4.826,4.826,0,0,0,1.4-2.527l1.695.043h.023a.9.9,0,0,0,.023-1.808l-1.695-.044a4.879,4.879,0,0,0-.9-2.146l2.642.068Z" transform="translate(297.646 2055.128)" fill="#e8e2dc"/>
    </g>
  </g>
</svg>
