<svg xmlns="http://www.w3.org/2000/svg" width="29.737" height="37.93" viewBox="0 0 29.737 37.93">
  <g id="Group_343" data-name="Group 343" transform="translate(-214.263 -2441.07)">
    <path id="Path_437" data-name="Path 437" d="M162.865,36.39a.516.516,0,0,0-.462.516V65.8a.516.516,0,0,0,.882.365l2.387-2.386,2.386,2.386a.516.516,0,0,0,.731,0l2.386-2.386,2.387,2.386a.516.516,0,0,0,.731,0l2.387-2.386,2.386,2.386a.516.516,0,0,0,.731,0l2.386-2.386,2.387,2.386a.516.516,0,0,0,.882-.365v-28.9a.516.516,0,0,0-.516-.516h-22.07Zm4.128,7.214h13.814a.516.516,0,1,1,0,1.032h-13.76a.517.517,0,0,1-.054-1.032Zm0,4.816h13.814a.516.516,0,1,1,0,1.032h-13.76a.517.517,0,0,1-.054-1.032Zm0,4.816h6.934a.516.516,0,1,1,0,1.032h-6.88a.517.517,0,0,1-.054-1.032Z" transform="translate(51.86 2404.68)" fill="#9d612b"/>
    <g id="Group_342" data-name="Group 342" transform="translate(-5826.126 -421.126)">
      <g id="Ellipse_98" data-name="Ellipse 98" transform="translate(6050.126 2880.126)" stroke="#ede9e5" stroke-width="1">
        <circle cx="10" cy="10" r="10" stroke="none"/>
        <circle cx="10" cy="10" r="9.5" fill="none"/>
      </g>
      <path id="Path_479" data-name="Path 479" d="M451.632,268a.5.5,0,0,0,.013-1l-3.492-.09-1.4-.035h-.013a.5.5,0,1,0-.012,1l1.4.036a1.617,1.617,0,0,1,1.5,1.215l-2.921-.078a.5.5,0,0,0-.026,1l2.927.075a1.672,1.672,0,0,1-.439.7,1.551,1.551,0,0,1-1.119.432l-1.4-.036a.5.5,0,0,0-.373.851l3.415,3.521a.5.5,0,1,0,.72-.7l-2.56-2.634h.17a2.558,2.558,0,0,0,1.83-.71,2.677,2.677,0,0,0,.778-1.4l.94.024h.013a.5.5,0,0,0,.013-1l-.94-.024a2.706,2.706,0,0,0-.5-1.191l1.466.038Z" transform="translate(5610.992 2619.817)" fill="#fff"/>
    </g>
  </g>
</svg>
