<svg xmlns="http://www.w3.org/2000/svg" width="433.983" height="498.924" viewBox="0 0 433.983 498.924">
  <g id="Group_311" data-name="Group 311" transform="translate(-805.8 -172.582)">
    <g id="Group_307" data-name="Group 307" transform="translate(815.736 177.101)">
      <g id="Group_10" data-name="Group 10" transform="translate(0 0)">
        <path id="Path_20" data-name="Path 20" d="M609.621,186.483C390.721,298.159,624.653,757.2,843.628,645.7,1062.516,534.034,828.583,74.99,609.621,186.483Z" transform="translate(-521.973 -169.122)" fill="#f0edea" stroke="#9d612b" stroke-width="1"/>
        <path id="Path_21" data-name="Path 21" d="M609.816,186.921C391.566,298.26,625,756.313,843.314,645.144,1061.552,533.811,828.123,75.758,609.816,186.921Z" transform="translate(-521.914 -169.062)" fill="#f0edea" stroke="#9d612b" stroke-width="1"/>
        <g id="Path_14" data-name="Path 14" transform="translate(16.087)">
          <path id="Path_22" data-name="Path 22" d="M673.388,169.917c-83.516-8.428-148.5,53.7-160.661,134.961C493.459,415.7,557.864,547.44,651.82,608.289c192.651,121.1,317.476-70.174,242.113-249C857.32,266.968,776.1,180.483,673.388,169.917ZM872.9,363.592C952.352,586.3,737.6,684.655,603.659,496.2c-48.166-68.347-70.246-172.831-22.343-243.515,34.365-53.491,107.258-62.258,162.194-34.695C803.965,246.463,849.218,301.827,872.9,363.592Z" transform="translate(-508.79 -169.124)" fill="#f0edea" stroke="#9d612b" stroke-width="1"/>
          <path id="Path_23" data-name="Path 23" d="M826.644,633.944c53.76-23.728,83.589-81.419,88.822-137.98,8.929-93.072-31.342-187.349-96.582-252.867C675.358,99.464,484.256,174.807,512.131,384.528c14.008,93.534,69.345,182.086,150.761,231.227C711.254,644.929,773.681,658.326,826.644,633.944Zm-152.4-463.519C821.5,187.206,928.536,353.679,914.674,495.431c-6.361,79.8-64.375,151.538-148.81,149.644-80.5-1.3-150.981-55.421-195.681-119.2-41.6-60.231-65.873-135.058-57.912-208.509C520.069,232.381,584.987,161.3,674.248,170.425ZM812.494,588.7c44.817-17.053,70.881-63.4,76.5-109.307,9.678-76.447-22.113-154.633-74.173-210.042C702.174,148.789,539.082,195.692,555.966,372.019,566.477,487.655,686.7,632.05,812.494,588.7ZM684.812,203.19c123.752,10.635,214.473,149.423,204.275,267.761-4.664,68.621-54.675,129.358-127.422,124.358-64.843-3.851-120.778-47.874-156.907-99.562-33.273-48.275-52.944-107.725-48.1-166.62C560.685,260.534,611.985,197.58,684.812,203.19Z" transform="translate(-509.397 -169.127)" fill="#f0edea" stroke="#9d612b" stroke-width="1"/>
        </g>
        <g id="Path_15" data-name="Path 15" transform="translate(95.73 60.521)">
          <path id="Path_24" data-name="Path 24" d="M817.341,358.914c-20.129-52.926-59.015-100.638-111.377-123.968-71.93-34.126-146.275,8.722-152.924,89.044-5.835,47.49,12.005,104.236,40.618,144.475C704,624.661,883.257,544.192,817.341,358.914ZM757.1,450.647c14.239,47.1-36.449,53.875-49.619,11.464-13.03-46.1,36.256-52.8,49.62-11.463Zm17.912-54.07c-26.463,4.165-52.558-50.287-20.98-58.651C779.69,335.377,804.3,386.493,775.014,396.577ZM655.813,300.1c-11.417-52.084,51.915-30.515,51.318,8.562C704.477,345.277,661.416,324.386,655.813,300.1Zm-26.249,50.821c33.859-4.054,58.691,57.059,20.643,67.644-35.266,6.4-61.625-59.3-20.642-67.644Z" transform="translate(-551.531 -223.127)" fill="#f0edea" stroke="#9d612b" stroke-width="1"/>
          <path id="Path_25" data-name="Path 25" d="M762.625,547.033c38.392-12.683,62.239-50.782,67.527-89.55C839.1,394.6,813.62,329.93,772.044,283.176,683.291,182.2,542.4,209.827,552.281,358.239,559.5,455.785,655.523,578.071,762.625,547.033ZM656.314,223.882c104.07,6.226,180.045,121.026,174.477,219.754-1.97,56.25-43.089,109.895-102.893,107.387-55.31-1.669-103.122-39.51-133.758-83.342-27.027-39.3-43.6-87.245-40.936-135.237C554.8,275.853,595.782,220.706,656.314,223.882Zm88.278,266.772c32.728-13.058,9.831-73.058-22.469-68.031C687.008,434.049,711.155,497.993,744.592,490.654Zm-22.023-66.827c31.117-4.83,53.162,53.016,21.6,65.552C712,496.445,688.705,434.8,722.569,423.827ZM650.663,419.2c38.774-10.8,13.393-73.125-21.11-68.894C587.912,358.774,614.753,425.762,650.663,419.2Zm-20.738-67.666c33.27-4.123,57.748,56,20.347,66.375C615.712,424.176,589.857,359.734,629.924,351.533Zm145.468,45.6c29.948-10.139,4.852-62.365-21.286-59.754C721.947,345.829,748.462,401.3,775.392,397.137Zm-20.818-58.694c25.146-2.433,49.284,47.847,20.427,57.577C749.043,400.017,723.489,346.465,754.574,338.442Zm-63.151-9.358c34.923-8.25,8.041-62.187-19.918-60.426C633.789,274.481,662.677,332.418,691.424,329.084Zm-19.507-59.349c26.929-1.664,52.8,50.309,19.137,58.22C663.359,331.135,635.544,275.29,671.917,269.735Z" transform="translate(-551.789 -223.115)" fill="#f0edea" stroke="#9d612b" stroke-width="1"/>
        </g>
      </g>
    </g>
    <path id="noun-broken-glass-crack-1091807" d="M116.883,75.912c-1.983.041-4.691.1-8.5.18,2.8-3.175,4.634-5.247,6.372-7.214a4.673,4.673,0,0,1-3.6-1.463c-.853-.817-1.709-1.2-2.693-.2a2.863,2.863,0,0,1-1.085.558,26.943,26.943,0,0,0-4.416,1.562,20.637,20.637,0,0,1-8.3,2.273c-4.246.453-8.191-.9-12.023-2.518-1.813-.766-2.567-.789-3.945.977-1.151,1.477-3.349,1.889-5.269,2.869.039-1.045.06-1.654.1-2.855-1.732,1.12-3.268,1.991-4.679,3.076-.707.544-1.082.728-1.533-.221a1.3,1.3,0,0,0-.7-.7c-3.417-.711-6.876-1.218-10.258-2.106a76.741,76.741,0,0,1-7.341-2.722,2.233,2.233,0,0,0-1.539-.136c1.446,1.174,2.875,2.385,4.351,3.512,4.434,3.389,8.868,6.785,13.35,10.1,3.048,2.256,6.172,4.376,9.265,6.55,1.2.844,2.406,1.654,3.6,2.5.933.67.966,2.12-.155,3.182-.2-.817-.358-1.49-.522-2.161l-.247.014a8.916,8.916,0,0,0,.322,2.464A17.417,17.417,0,0,1,78.89,100.9c-.018,1.028-.131,2.052-.23,3.076-.092.97.021,1.742,1.062,1.865,1.187.143,1.4,1.252,1.235,2.178a28.806,28.806,0,0,1-1.458,5.7,20.663,20.663,0,0,1-2.478,3.712c-.027-.017.262.129.605.3-1.22,1.49-.641,2.76.31,3.961l.134.167c.274.014.555.027.838.037-.113.2-.23.395-.34.585,1.118,1.4,2.248,2.78,3.37,4.179.7.881,1.312.953,1.571-.354.23-1.167.352-2.361.465-3.552.161-1.708.292-3.413,1.879-4.6-.847,2.967-.042,6.805,1.771,8.544.245-.609.477-1.184.7-1.739l-1.285-.609c.316-.616.573-1.695.969-1.766,1.032-.184,1.067-1.184,1.336-1.81,1.053-2.474,1.965-5.029,2.869-7.581.373-1.055.092-1.752-1.091-1.613a14.229,14.229,0,0,0,.182-2.2,1.748,1.748,0,0,1,1.539-2.082,3.9,3.9,0,0,1,2,.572,16.047,16.047,0,0,1,1.879,1.245c-.221,1.742.945,2.487,2.338,2.838,4.043,1.014,7.526,3.416,11.069,5.689,2.907,1.865,5.83,3.7,8.746,5.553.689.439,1.208.316,1.87-.286,2.359-2.137,4.831-4.114,7.2-6.227a18.532,18.532,0,0,0,5.606-7.983,1.707,1.707,0,0,1,.277-.5l.286-1.113c.194.017.388.031.605.051a1.627,1.627,0,0,1,.352-.473c.987-.755,1.995-1.477,3.155-2.324-3.179,8.412-8.018,15.612-12.855,23.159.936.636,1.932,1.348,2.958,2,2.639,1.691,5.251,3.447,7.953,5,1.616.932,3.4,1.477,5.063,2.321,1.184.6,2.263,1.463,3.432,2.11q15.373,8.509,30.764,16.986c10.279,5.689,20.578,11.338,30.812,17.133,6.45,3.651,12.816,7.5,19.186,11.342,1.282.772,2.353,2.576,3.608,2.692,1.61.15,2.717,1.1,3.978,1.786a59.258,59.258,0,0,1,7.693,4.747c1.02.783,2.535,1.075,3.1,2.579l.253.146-.17.112c.015.048.027.1.039.143l-.137-.078-.051.034-.021-.078c-5.955-3.522-11.9-7.061-17.873-10.559q-10.632-6.232-21.291-12.4c-9.125-5.281-18.241-10.582-27.4-15.778-6.372-3.614-12.825-7.047-19.23-10.589-6.9-3.814-13.806-7.609-20.664-11.522-2.973-1.7-5.848-3.634-8.728-5.529-1.07-.7-1.956-1.416-3.316-.575-1.1.677-2.23-.088-2.332-1.507a2.613,2.613,0,0,0-1.568-2.283c-4.485-2.641-8.94-5.356-13.493-7.833a17.365,17.365,0,0,0-4.863-1.381c-.322-.068-.757.589-1.422,1.15.847.211,1.339.33,1.989.493-.456,2.664,2.037,2.535,2.946,4.107-1.014-.02-1.995-.044-2.973-.065-.033.17-.063.344-.1.514,1.446.544,2.892,1.089,4.735,1.78a4.075,4.075,0,0,0-1.044.3c-.605.47-1.515.871-1.685,1.514-.25.949,1.184,2.287,2.144,2.406a20.634,20.634,0,0,1,2.192.524c.209-.8.438-1.688.8-3.073a45.735,45.735,0,0,0,5.156,1.208c.823.105,1.715-.49,2.576-.762,1.4-.446,2.248.078,2.424,1.695a17.73,17.73,0,0,1-6.706,16.49,3.335,3.335,0,0,1-2.171.473c-2.672-.2-5.344-.442-8-.837a5.725,5.725,0,0,1-2.389-1.4c3.08.068,5.078-2.328,7.831-3.913-.984-.7-1.706-1.211-2.341-1.664l2-3.416a23.63,23.63,0,0,1-3.972-1.729,1.632,1.632,0,0,1-.17-2.623,9.124,9.124,0,0,1-1.1.915c-.9.541-1.685,1.7-2.9.476-.438-.439-1.148-.245-1.2.786a10.288,10.288,0,0,1-.3,1.375c-.158.82-.319,1.643-.444,2.474a9.177,9.177,0,0,1-.331,1.783c-.191.582,2,.5.435,1.439a26.328,26.328,0,0,1,.9,2.593c-1.375.82-.036,3.62-2.084,3.951.34-.891.927-1.7.853-2.423a6.747,6.747,0,0,0-1.178-2.344c-.686-1.2-1.4-2.379-2.1-3.566a.252.252,0,0,1-.122.088c-.3-.058-.862-.092-.868-.177a42.269,42.269,0,0,1-.137-4.3c.042-1.065.414-2.123.4-3.182-.006-.476-.558-1.011-.963-1.371-.146-.129-.838.146-.844.265-.024.5.158,1.011.185,1.524s-.045,1.024-.063,1.538a4.3,4.3,0,0,1-.143,1.245c-.045.15-.1.3-.149.453.966,2.413,1.983,4.941,3.119,7.769-.677-.184-1.935-.35-3.128-.681.081.5.155,1,.218,1.5.033.252-.37.575-.659.99a12.872,12.872,0,0,1-.668-2.862,4.524,4.524,0,0,1-.9-.487c-.063-.041-.122-.089-.179-.133q-.157,3.185-.307,6.373c.644.861,1.309,1.746,1.983,2.637l.1-.041c.063.14.125.279.185.422l.587.772.149-.071-.373.17a9.215,9.215,0,0,0,.814,1.6,18.189,18.189,0,0,0,2.189,2.287c.23-.541.385-.915.435-1.034.573.691,1.178,1.429,1.786,2.164.149-.088.3-.177.453-.269q-.206-2.3-.414-4.6l.438-.1c.286,1.6.65,3.192.844,4.808.2,1.7.239,3.43.34,5.016-.352.1-.617.177-.88.248.286.868.6,1.729.85,2.61a7.362,7.362,0,0,1,.4,1.953c.006,1.9-.218,3.8-.119,5.679.161,3.124.576,6.234.748,9.354.188,3.392.092,6.809.352,10.191.352,4.6.933,9.174,1.4,13.757.391,3.852.65,7.724,1.16,11.556.713,5.366,1.58,10.708,2.433,16.051.745,4.686,1.449,9.384,2.377,14.023.862,4.311,1.965,8.565,3.012,12.825.537,2.195,1.181,4.359,1.542,6.676-.37-.919-.745-1.831-1.112-2.753-2.4-6.036-3.274-12.549-4.512-18.943-1.413-7.312-2.886-14.614-4.04-21.981-.787-5.036-1.151-10.161-1.568-15.262-.781-9.5-1.458-19.011-2.177-28.518a20.2,20.2,0,0,1-.143-2.239c.1-2.8-1-5.1-1.995-7.438-.021.973-.039,1.957-.06,2.954-2.132.987-7.049-1.313-8.173-4.056,1.473-.037,3.176.592,4.6-.306a3.988,3.988,0,0,0,.734-.619,1.7,1.7,0,0,1-.388-.633,23.251,23.251,0,0,0-1.408-3.549c-.227-.439-.7-.7-.939-1.14-1.2-2.219-.841-4.434.1-6.622l-.03.02q.058-1.659.116-3.324l-6.107,2.783c.1.051-1.428-.779-2.827-1.541,1.312-2.2,2.529-4.253,3.769-6.343-.122-.231-.253-.5-.406-.82-.048-.1-.1-.265-.17-.279-2.132-.419-1.4-2.321-1.589-3.8-.066-.521-.578-.987-.93-1.436a19.213,19.213,0,0,1-2.153-2.729,9.478,9.478,0,0,0-2.818-3.4c-.787-.589-1.151-1.967-1.586-3.052-.048-.116.71-.65,1.336-1.2-.814-.2-1.5-.374-2.374-.589.349-.293.534-.449.877-.738a4.494,4.494,0,0,1-1.053-.374c-3.853,5.295-5.1,3.372-5.746.01-.59.674-1.053,1.535-1.64,2.2-.349.395-.5,1.021-.844,1.416-1.19,1.348-.972,2.593.656,3.154a10.729,10.729,0,0,0,2,.279c-1.81,1.154-3.015-.289-4.3-1.034-2.9,3.406-5.734,6.8-8.621,10.13-2.7,3.114-5.394,6.227-8.179,9.238-6.343,6.86-12.76,13.631-19.1,20.5a67.835,67.835,0,0,0-4.747,5.812A6.2,6.2,0,0,0,24.3,181.12c-.268,3.12-1.98,5.244-3.477,7.605a33.679,33.679,0,0,0-2.35,5.4c-3.671,9.106-7.309,18.222-10.989,27.32-2.207,5.465,7.192-20.793,11.388-32.281.906-2.484,1.4-5.159,2.18-7.707a4.5,4.5,0,0,1,1.148-1.9,22.166,22.166,0,0,0,5.43-7.956,30.981,30.981,0,0,1,3.116-5.5q3.171-4.675,6.593-9.136a9.365,9.365,0,0,1,3.241-3.025,10.291,10.291,0,0,1,4.515-.432c1.87.1,1.867.221,3.176-1.613-.748-3.233,1.124-5.611,2.18-8.578l-1.616,1.375A3.211,3.211,0,0,1,49,144c.978-1.48,2.394-2.457,2.734-4.648.265-1.708,1.583-3.185,2.341-4.818.534-1.15.912-2.389,1.539-4.07-.7.4-.963.551-1.312.755a2.613,2.613,0,0,1,.194-.715c1.539-2.3,1.381-5.1,1.679-7.748.116-1.041-1.8-2.43-2.74-2.1a87.234,87.234,0,0,1-19.325,4.866q-6.942.766-13.881,1.538c-.018-.177-.033-.351-.051-.527,3.062-.419,6.119-.912,9.19-1.239,7.294-.779,14.593-1.507,21.565-4.355,1.088-.446,2.153-.97,3.343-1.511-.391-.878-.79-1.766-1.285-2.872.856-1.2.212-1.994-1.073-2.739-.468-.272-.927-.568-1.387-.881q.376.8.76,1.626c-5.666,1.433-5.964,1.017-6.76-8.258l.125-.17c-1.053-1.61-2.186-3.321-3.364-4.985-1.041-1.473-2.311-2.732-3.444-4.124-4.622-5.669-9.2-11.378-12.807-17.99a9.7,9.7,0,0,1-1.172-2.491c.907,1.109,1.783,2.249,2.722,3.318,2.141,2.447,4.386,4.781,6.45,7.309,2.535,3.1,4.765,6.543,7.422,9.491,3.9,4.325,8.042,8.381,12.163,12.44.614.609,1.691.6,2.544.912.6.221,1.178.5,1.956.84-.3-1.446-.581-2.76-.859-4.073l.289-.129q.734,2.46,1.47,4.92c2.195-.507,2.245-.487,2.609,1.038.781-.868,1.509-1.674,2.236-2.481-.066-.051-.134-.1-.2-.15.725-.344,1.446-.687,2.251-1.065,0,.218.006.541.018,1.3.605-.626,1.02-1.055,1.428-1.473.176.395.349,1.215.593,1.242a4.27,4.27,0,0,0,2.135-.31,21.718,21.718,0,0,0,2.538-1.477c-.122-.667-.483-1.419-.3-1.892a10.178,10.178,0,0,1,1.852-2.875,13.9,13.9,0,0,0,.841-1.776,31.074,31.074,0,0,0,1.2-4.57c.057-.367-.874-.936-1.354-1.4s-.966-.926-1.753-1.678c.042.83.063,1.215.083,1.691-.28-.027-.581-.058-1.011-.1.322-.612.561-1.062.8-1.511-.057-.054-.116-.109-.176-.163l-1.05,1.143a9.817,9.817,0,0,1,.546-2.678c.912-1.5.271-2.491-.677-3.365-1.858-1.722-3.76-3.382-5.663-5.043-3.5-3.059-6.981-6.159-10.535-9.133-4.017-3.362-8.144-6.554-12.16-9.923-3.083-2.586-6.032-5.383-9.11-7.99-3.718-3.151-2.329-3.341,2.442.453a58.105,58.105,0,0,1,4.917,4.117c2.06,2.045,4.574,2.344,7.061,3.008a22.171,22.171,0,0,0,7.878.361c1.4-.126,2.872.531,4.294.919.975.265,1.92.677,2.889,1.024,1.3-1.592.507-3.26-.009-4.539-.507-1.256-.716-2.117-.027-3.294.567-.97.465-1.055-.6-1.218a.931.931,0,0,1-.489-.368q-3.976-4.966-7.944-9.953c.113-.146.227-.293.337-.442,1.8,1.7,3.68,3.29,5.358,5.128,1.744,1.912,3.295,4.06,4.923,6.111s3.221,4.09,4.828,6.132l.6-.041c.409-1.678.835-3.348,1.22-5.033a37.48,37.48,0,0,0,.757-3.849c.179-1.514.134-3.059.3-4.573a31.942,31.942,0,0,1,.835-5.73,27.332,27.332,0,0,0,.576-11.385c-.119-.983.215-2.069-.021-2.988a52.232,52.232,0,0,0-2.314-7.629c-1.655-3.876-3.614-7.581-5.451-11.372.11-.031.227-.092.247-.061a47.722,47.722,0,0,0,3.37,4.914c1.762,1.919,2.672,4.818,4.2,7.071a9.391,9.391,0,0,1,1.363,5.567c.033,2.43.59,4.842.832,7.278.113,1.164-.024,2.358.036,3.532.113,2.212,1.223,3.651,2.869,3.831-.6,2.171-.519,2.256,2.8,2.709-.584.436-1.067.8-1.548,1.157.084.129.167.259.25.391,1.47-1,3.79-.473,4.488-3.774-1.744.4-3.2.745-4.649,1.085-.048-.129-.1-.255-.146-.381.653-.381,1.288-1.031,1.965-1.1a16.359,16.359,0,0,1,11.057,2.787A4.345,4.345,0,0,1,93.8,47.9c.713,1.045.4,1.81-.775,1.994-1.363.214-2.845.116-4.055.721a7.808,7.808,0,0,0-2.6,2.845c-.7,1.089-1.273,2.093-2.547,2.46a11.975,11.975,0,0,0-2.576,1.538c-.194,1.024-.423,2.232-.716,3.77.417-.34.62-.507.868-.708.531.613,1.073,1.235,1.613,1.861-1,.071-1.163.643-.811,1.627.435,1.2.805,2.443,1.2,3.665.149-.446.322-.96.495-1.473.083.027.164.058.247.082l.066,1.317.438.092c.182-.664.364-1.327.552-2.018,2.618-1.31,5.341-2.668,8.051-4.063.122-.061.1-.473.167-.81-3.6-.793-6.846.817-10.192,1.514a37.244,37.244,0,0,1,4.667-2.011c3.513-.987,7.07-1.776,10.618-2.59.343-.078.757.231,1.136.364-.033.174-.069.347-.1.521l-1.357.381c.215.425.4.789.611,1.211.924-1.13,1.81-1.586,2.979-.575.331.289.963.187,1.452.16,1.36-.071,2.716-.2,4.076-.306,1.768-.133,3.525-.225,5.114.96a1.023,1.023,0,0,0,.877.17c1.992-.83,3.7.357,5.555.749a16.268,16.268,0,0,0,7.771.014,6.2,6.2,0,0,0,4.592-4.376,2.178,2.178,0,0,1,2.326-1.637c1.4-1.708,2.5-4.06,4.166-4.815,1.962-.892,3.307-2.569,5.048-3.678a30.343,30.343,0,0,0,6.041-5.567c1.658-1.878,3.73-2.474,5.782-3.151,4.446-1.46,8.919-2.8,13.4-4.093,2.952-.851,5.967-1.436,8.916-2.3,5.293-1.545,10.559-3.188,15.828-4.822,6.629-2.055,13.5-1.64,20.232-2.579,5.8-.806,11.632-1.32,17.4-2.365,6-1.085,11.966-2.467,17.883-4.049a141.844,141.844,0,0,0,25.984-9.4c5.52-2.7-1.721,1.79-8.37,4.706-14.662,6.431-29.667,11.474-45.328,13.621-1.554.214-3.125.228-4.679.415-2.731.333-5.457.766-8.189,1.089-4.055.48-8.12.874-12.172,1.371-1.27.157-2.52.544-3.781.8-3.03.623-6.077,1.147-9.086,1.871-2.848.684-5.675,1.5-8.48,2.385-6.113,1.926-12.234,3.818-18.3,5.941a29.668,29.668,0,0,0-13.171,9.228c-.313.374-.629.749-.972,1.089-1.929,1.912-1.914,2.515.289,4.7a24.531,24.531,0,0,0-4.795,1.974c-1.655,1.113-3.608,2.4-4.428,4.209-1.151,2.542-2.9,3.58-4.914,4.583a3.4,3.4,0,0,0-.865.718c.316,1.1.6,2.069.871,3.022a4.687,4.687,0,0,1-.5-.449c-1.375-1.463-1.649-1.409-2.43.544-.122.3-.215.626-.429,1.266-.423-.667-.728-1.15-1.181-1.858,1.208-1.12,2.427-2.249,3.647-3.376-1.536.017-2.311,2.549-4.249.919.227-.476.468-.98.772-1.62-.3-.374-.605-1-1.065-1.232a1.552,1.552,0,0,0-1.458.122c-1.4,1.106-2.651,2.491-4.1,3.5a4.559,4.559,0,0,1-1.366.667c.62,1.776,1.27,3.631,2.233,6.387,1.568-1.443,3.149-2.9,4.792-4.417.209.344.4.708.638,1.038.417.585.766,1.473,1.3,1.664,2.77.98,4.9,3.495,7.8,4.121.74.163,1.473.385,2.2.613A50.052,50.052,0,0,0,145.449,80.3c2.964.252,5.856,1.521,8.791,2.307,1.613.436,3.238.81,5.12,1.273-2,2.222-4.676,2.705-7.252,4.464,2.263.1,4.1.119,5.931.272,1.989.163,3.969.558,5.958.66,1.965.1,3.939-.119,5.907-.058,2.5.085,4.989.327,7.485.456.28.014.576-.262.808-.374a29.254,29.254,0,0,0,3.429.5,16.928,16.928,0,0,1,4.091.133c1.44.381,3.062-.225,4.607-.231,2.654-.01,5.3.146,7.956.163,1.855.014,3.71-.041,5.558-.177.385-.027.745-.531,1.023-.745.42.187.93.616,1.425.6,2.093-.088,4.181-.33,6.271-.48,2.335-.17,4.673-.33,7.007-.453,2.8-.146,5.609-.194,8.406-.4a18.35,18.35,0,0,0,2.675-.762,3.343,3.343,0,0,1,1.229.058c.426.065.874.35,1.267.269,2.714-.561,5.469-.245,8.194-.616,2.851-.388,5.728-.541,8.582-.9,2.958-.374,5.9-.888,8.853-1.3a27.832,27.832,0,0,0,4.249-.483,54.752,54.752,0,0,1,8.15-1.688c2.248-.32,4.574.1,6.826-.191,3.217-.419,6.39-1.276,9.6-1.78,2.153-.333,4.345-.33,6.516-.568a41.242,41.242,0,0,0,4.905-.783c2.171-.51,4.482-.49,6.521-1.222,2.66-.953,5.388-.514,8.018-1.348a55.909,55.909,0,0,1,6.31-1.16c2.666-.524,5.314-1.191,7.986-1.667,3.656-.65,7.333-1.133,10.989-1.773,3.79-.667,7.574-1.385,11.34-2.2.683-.15,1.229-1,1.911-1.317,1.1-.521,2.254-.868,3.462-1.313.024,2.882.045,3-2.1,3.454-5.859,1.242-11.728,2.46-17.614,3.535-12.918,2.355-25.835,4.7-38.774,6.874-6.238,1.055-12.521,1.759-18.789,2.566q-8.65,1.108-17.316,2.093c-11.048,1.239-22.093,2.484-33.15,3.62-7.3.749-14.623,1.259-21.926,2-1.6.167-3.146-.255-4.732-.14-1.81.133-3.632.054-5.451.037-1.762-.014-3.525-.071-5.287-.109q-8.154-.163-16.311-.323c-6.489-.133-12.977-.391-19.466-.357a43.963,43.963,0,0,0-8.952,1.048c-.85.184-1.521,1.729-2.174,2.736-.68,1.055-1.238,2.219-1.855,3.331-.507.912-1.017,1.82-1.545,2.712-.218.371-.486.7-.734,1.041-.128-.1-.256-.191-.385-.289q1.74-4.686,3.486-9.375c-.107-.129-.215-.255-.325-.385-1.75.6-3.483,1.279-5.257,1.763a20.392,20.392,0,0,0-6.492,3.454,3.717,3.717,0,0,1-2.314.211c-.48-.031-.942-.534-1.413-.538-3.456-.027-5.427-2.886-7.679-5.182-1.792-1.824-3.5-3.757-5.245-5.638a11.23,11.23,0,0,1-1.324-1.392,23.1,23.1,0,0,1-1.2-2.321c.868-.534,1.285-1.878,2.666-1.535a19.4,19.4,0,0,0,3.766.214c-1.41,2.246-3.653.235-5.445,1.269,1.67,2.287,3.173,4.611,5.517,6.013.829.5,1.47,1.4,2.284,1.936a13.12,13.12,0,0,0,1.393.786l.024-.082-.069-.041.089-.037a2.911,2.911,0,0,1,2.55-2.116,15.118,15.118,0,0,1,2.976-.286c.331,0,.659.47.737.527,2.171-1.092,4.285-2.157,6.4-3.226,0-.17,0-.344.006-.514-4.324-1.514-8.922-2.392-12.044-6.52l-2.123,1.048c-.054-.1-.107-.191-.161-.289L121.132,78l-.057-.412a6.249,6.249,0,0,1-2.338.194,9.4,9.4,0,0,1-2.251-1.5Zm-7.848-25.435-4.506,5.176c-1.7-.187-3.933-.429-6.533-.718,3.483-2.266,6.784-4.56,10.067-6.4.465-.259.847,1.667.972,1.94Zm7.437,25.8.018-.027.006,0C116.487,76.256,116.481,76.266,116.472,76.273Z" transform="matrix(0.966, 0.259, -0.259, 0.966, 868.391, 164.518)" fill="#f0edea" stroke="#9d612b" stroke-width="2" fill-rule="evenodd"/>
    <path id="Path_378" data-name="Path 378" d="M-4661.982,13082.266l1.054,4.105,15.121,18.36v25.677l5.715-8.743h5.392l21.058-31.294-9.248,2.134-29.381-2.134Z" transform="translate(5569 -12832)" fill="#f0edea"/>
  </g>
</svg>
