<svg xmlns="http://www.w3.org/2000/svg" width="53.214" height="61.097" viewBox="0 0 53.214 61.097">
  <g id="Group_15" data-name="Group 15" transform="translate(-617.295 -2045.744) rotate(3)" opacity="0.364">
    <g id="Group_10" data-name="Group 10" transform="translate(727 2011)">
      <path id="Path_20" data-name="Path 20" d="M559.4,171.18c25.472,13-1.749,66.411-27.23,53.437C506.7,211.623,533.922,158.207,559.4,171.18Z" transform="translate(-520.322 -169.16)" fill="#f0edea" stroke="#956436" stroke-width="1"/>
      <path id="Path_21" data-name="Path 21" d="M559.8,171.674c25.4,12.956-1.766,66.257-27.171,53.321C507.234,212.04,534.4,158.739,559.8,171.674Z" transform="translate(-520.75 -169.596)" fill="none" stroke="#956436" stroke-width="1"/>
      <g id="Path_14" data-name="Path 14" transform="translate(0 0)">
        <path id="Path_22" data-name="Path 22" d="M537.565,169.239c9.718-.981,17.28,6.249,18.7,15.7,2.242,12.9-5.252,28.226-16.185,35.306-22.418,14.091-36.943-8.166-28.173-28.974C516.162,180.533,525.614,170.469,537.565,169.239Zm-23.216,22.537c-9.245,25.915,15.745,37.36,31.33,15.43,5.6-7.953,8.174-20.111,2.6-28.336-4-6.224-12.481-7.245-18.874-4.037C522.371,178.147,517.105,184.589,514.349,191.776Z" transform="translate(-509.312 -169.147)" fill="#f0edea" stroke="#956436" stroke-width="1"/>
        <path id="Path_23" data-name="Path 23" d="M519.876,223.215c-6.256-2.761-9.727-9.474-10.336-16.056-1.039-10.83,3.647-21.8,11.239-29.425,16.7-16.714,38.939-7.947,35.7,16.458-1.63,10.884-8.069,21.188-17.543,26.907C533.3,224.493,526.039,226.052,519.876,223.215Zm17.734-53.937c-17.135,1.953-29.59,21.324-27.977,37.819.74,9.286,7.491,17.634,17.316,17.413,9.368-.152,17.569-6.449,22.77-13.871,4.841-7.009,7.665-15.716,6.739-24.263C555.55,176.487,548,168.216,537.61,169.278ZM521.523,217.95c-5.215-1.984-8.248-7.377-8.9-12.719-1.126-8.9,2.573-17.994,8.631-24.441,13.108-14.029,32.086-8.571,30.121,11.947C550.15,206.192,536.16,222.995,521.523,217.95Zm14.858-44.86c-14.4,1.237-24.957,17.387-23.77,31.158.543,7.985,6.362,15.053,14.827,14.471,7.545-.448,14.054-5.571,18.258-11.585a30.345,30.345,0,0,0,5.6-19.389C550.824,179.763,544.855,172.438,536.38,173.091Z" transform="translate(-509.386 -169.127)" stroke="#956436" stroke-width="1"/>
      </g>
      <g id="Path_15" data-name="Path 15" transform="translate(5.54 7.042)">
        <path id="Path_24" data-name="Path 24" d="M553.586,238.928c2.342-6.159,6.867-11.711,12.96-14.425,8.37-3.971,17.021,1.015,17.795,10.362.679,5.526-1.4,12.129-4.727,16.812C566.775,269.852,545.915,260.488,553.586,238.928ZM560.6,249.6c-1.657,5.481,4.241,6.269,5.774,1.334,1.516-5.365-4.219-6.144-5.774-1.334Zm-2.084-6.292c3.079.485,6.116-5.852,2.441-6.825C557.967,236.189,555.1,242.137,558.511,243.311Zm13.871-11.226c1.329-6.061-6.041-3.551-5.971,1C566.719,237.341,571.73,234.91,572.382,232.084ZM575.436,238c-3.94-.472-6.83,6.64-2.4,7.871,4.1.745,7.171-6.9,2.4-7.871Z" transform="translate(-551.917 -223.127)" fill="#f0edea" stroke="#956436" stroke-width="1"/>
        <path id="Path_25" data-name="Path 25" d="M559.854,260.908c-4.467-1.476-7.242-5.909-7.858-10.42-1.041-7.318,1.924-14.843,6.762-20.283,10.328-11.751,26.722-8.535,25.573,8.735C583.491,250.291,572.317,264.52,559.854,260.908Zm12.371-37.6c-12.11.724-20.951,14.083-20.3,25.572.229,6.545,5.014,12.788,11.973,12.5,6.436-.194,12-4.6,15.565-9.7a25.708,25.708,0,0,0,4.763-15.737C584.038,229.353,579.269,222.936,572.225,223.305Zm-10.272,31.043c-3.808-1.519-1.144-8.5,2.615-7.916C568.653,247.761,565.844,255.2,561.953,254.348Zm2.563-7.776c-3.621-.562-6.186,6.169-2.514,7.628C565.745,255.022,568.456,247.849,564.515,246.572Zm8.367-.539c-4.512-1.257-1.558-8.509,2.457-8.017C580.185,239,577.061,246.8,572.883,246.033Zm2.413-7.874c-3.871-.48-6.72,6.517-2.368,7.724C576.95,246.612,579.958,239.114,575.3,238.159Zm-16.927,5.307c-3.485-1.18-.565-7.257,2.477-6.953C564.588,237.5,561.5,243.951,558.369,243.466Zm2.423-6.83c-2.926-.283-5.735,5.568-2.377,6.7C561.435,243.8,564.408,237.57,560.791,236.636Zm7.348-1.089c-4.064-.96-.936-7.236,2.318-7.031C574.846,229.193,571.485,235.935,568.14,235.547Zm2.27-6.906c-3.134-.194-6.144,5.854-2.227,6.775C571.405,235.786,574.642,229.287,570.409,228.641Z" transform="translate(-551.789 -223.216)" stroke="#956436" stroke-width="1"/>
      </g>
    </g>
  </g>
</svg>
