<svg xmlns="http://www.w3.org/2000/svg" width="581.381" height="544.525" viewBox="0 0 581.381 544.525">
  <g id="noun-wall-crack-1285704" transform="translate(-88.061 -33.661)" opacity="0.27">
    <path id="Path_377" data-name="Path 377" d="M141.956,421.894c-4.971,1.244-6.834,3.727-8.078,6.834-3.107,6.215-6.834,8.7-13.668,5.591-3.727-1.863-7.454,1.244-8.078,6.215a25.548,25.548,0,0,0,.62,6.834c.62,6.215-2.483,9.941-8.7,9.941-1.244,0-2.483,0-3.107-1.244s-.62-3.107.62-3.727a13.039,13.039,0,0,1,3.736-2.488c3.107-1.244,3.107-3.107,3.107-6.215-1.244-6.834-.62-6.834,2.483-13.049-4.351.62-8.078,1.244-11.805-.62-3.107-1.244-4.971,2.483-7.454,3.727-1.244.62-2.483.62-3.107-.62a1.891,1.891,0,0,1,0-2.483c3.107-3.727,5.591-7.454,11.181-6.215a26.755,26.755,0,0,0,9.941,0,13.825,13.825,0,0,1,9.942,1.863c6.215,3.107,6.834,3.107,11.181-3.107,3.107-4.351,6.834-7.454,12.425-8.7,6.834-1.863,10.561-8.7,14.288-13.668,7.454-11.181,13.668-23.61,16.776-37.279,1.864-9.941,6.215-20.5,14.288-27.957a10.354,10.354,0,0,0,3.107-9.942c-3.107-14.912-8.7-28.581-22.366-36.654C158.727,282.721,155.62,273.4,155,262.223a12.493,12.493,0,0,1,2.483-8.078c6.834-8.7,6.215-18.015,0-26.713-3.727-4.971-5.591-10.561-4.351-16.776.62-2.483,1.244-4.351,3.107-5.591,1.244-.62,2.483-.62,3.107,0,1.244.62,1.864,1.864.62,3.107-4.351,7.454-1.244,13.049,2.483,19.883a25.79,25.79,0,0,1,0,26.713c-6.215,11.181-3.727,22.366,6.834,29.82,13.668,8.7,19.259,22.366,24.849,36.034,2.483,6.215,2.483,13.668-4.351,18.639-1.864,1.244-2.483,3.727-3.727,6.215,6.215-2.483,13.049-3.107,18.64-7.454.62-.62,1.244-1.244,1.864-1.244,17.4-3.727,19.259-19.259,24.849-32.308,2.483-5.591,4.351-11.805,3.107-18.015-.62-2.483,1.864-4.351,3.727-4.971a35.952,35.952,0,0,1,8.7-3.107c7.454-1.244,13.049-6.215,19.259-10.561,3.727-3.107,4.351-12.424,1.244-15.532-5.591-5.591-4.351-11.805-2.483-18.64.62-2.483,2.483-4.971,5.591-3.107,2.483,1.244,1.864,3.727.62,6.215-3.107,4.351-3.107,8.7.62,12.425,2.483,2.483,3.107,6.215,2.483,8.078-3.727,8.078,2.483,14.912,2.483,22.986,0,6.215,4.351,11.181,9.941,13.049,9.317,3.107,17.4,9.317,27.337,11.805,2.483.62,4.971,1.244,6.834-1.244s1.244-4.971-.62-7.454q-3.725-4.661-7.454-9.317c-4.351-5.591-3.727-9.317,2.483-13.049,4.351-2.483,8.7-3.727,12.425-7.454,2.483-1.864,3.727-3.727,3.107-7.454,1.876-8.082,6.847-14.3,10.574-20.511a3,3,0,0,1,4.351-1.244c1.863,1.244,1.244,3.107,0,4.351-1.244,1.864-2.483,3.107-3.107,4.971-3.727,7.454-1.244,9.942,6.834,9.942,1.863,0,1.863-1.244,2.483-2.483,3.107-6.215,4.351-6.215,13.049-3.107-4.351,2.483-8.7,4.351-9.941,9.317-.62,1.864-3.107,2.483-4.971,1.864s-3.727-1.244-5.591-1.864c-1.244,0-3.107-.62-3.727,1.244-1.863,9.317-9.317,11.181-16.152,14.288-7.454,3.727-8.078,4.971-3.107,11.805,1.864,2.483,3.107,5.591,4.971,8.7,1.864,4.971.62,8.078-2.483,12.425-6.215,8.7-5.591,19.259-5.591,29.2,0,1.863,1.863,3.727,4.351,4.351,5.59,1.244,10.561,3.107,16.152,0h.62c9.941-.62,15.532-5.591,17.4-15.532.62-3.727,4.351-7.454,6.834-10.561,1.244-1.864,2.483-3.727.62-6.215-2.483-3.107-1.244-5.591,1.244-8.078,8.7-7.454,13.049-16.776,14.288-27.957a44.6,44.6,0,0,1,6.834-21.122c2.483-4.351,5.591-6.215,10.561-6.215a75.392,75.392,0,0,0,11.805-.62c6.215-1.244,11.805-2.483,11.805-10.561,0-3.107,2.483-3.727,4.351-4.351H432.1c1.863,0,4.971,1.244,6.215-1.864.62-2.483-1.244-4.351-2.483-6.215A62.9,62.9,0,0,0,425.888,215c-10.561-8.7-13.668-10.561-5.591-24.849,4.351-7.454,3.107-13.668-1.244-19.259-3.107-4.351-4.971-8.7-7.454-13.668a11.736,11.736,0,0,1-1.244-4.971c0-1.864.62-3.727,3.107-3.727,1.863,0,2.483,1.244,2.483,3.107.62,8.7,4.971,16.152,10.561,22.986,3.727,4.351,2.483,9.317.62,13.668q-1.866,3.725-3.727,7.454c-3.107,7.454-2.483,9.941,3.727,14.912s13.049,9.317,16.776,16.776c1.244,1.864,3.107,1.244,4.351,0,3.727-2.483,4.971-6.215,6.215-9.941,1.864-8.078,6.215-14.912,9.317-22.986,2.483-5.591,5.591-11.181,4.971-18.015,0-3.727,2.483-4.971,5.591-5.591,6.215-1.244,13.049-3.107,19.259-3.727s10.561-3.107,12.425-9.317c2.483-6.834,4.971-13.668,10.561-19.259,3.727-3.107,1.863-8.078,2.483-12.424,0-4.971-3.107-6.215-6.215-8.7a33.453,33.453,0,0,0-12.424-6.215c-1.244-.62-2.483-1.244-1.864-2.483,0-1.864,1.864-1.864,3.107-1.864s3.107.62,4.351.62c11.805,2.483,19.259-1.244,24.23-11.805,2.483-5.591,7.454-7.454,9.941-13.049,1.244-3.107,6.215-3.107,9.942-3.107,5.591-.62,9.942,1.244,14.912,2.483,3.727,1.244,4.971,0,5.591-3.727,0-1.864,0-3.727-.62-4.971-3.107-4.971-2.483-9.941,0-14.912s3.727-9.317-1.244-13.668c-1.863-1.864-1.863-5.591,0-8.078s3.727-4.351,8.078-1.864c-3.727,3.727-4.351,8.7-.62,12.425,2.483,3.107.62,6.215-.62,8.7-3.107,6.834-3.727,13.668,1.244,19.883a8.852,8.852,0,0,1,1.244,3.727c1.864,11.181,9.317,19.259,18.64,24.23,6.215,3.727,11.805,7.454,19.883,6.215,6.834-1.244,8.078-1.864,6.834-9.317q-.93-4.661,3.727-5.591c4.351-.62,8.7-1.244,12.424-1.864s6.215-1.864,4.351-6.215.62-8.7,1.244-12.425c1.244-5.591-1.244-9.317-5.591-11.805q-1.866-.93-3.727-1.864c-3.107-1.864-3.727-4.351-1.244-7.454,3.727-4.351,9.317-6.834,13.668-11.181a2.168,2.168,0,0,1,3.107.62c1.244,1.244.62,2.483-.62,3.727-3.107,3.107-7.454,5.591-9.941,9.941,4.351,4.351,9.317,8.078,12.424,13.668,1.244,2.483,3.107,1.244,5.591,1.244,3.727-.62,7.454-1.244,10.561,0,0,4.351-3.107,3.107-4.971,3.727-3.727.62-7.454,1.244-10.561,3.107-4.351,2.483-6.834,5.591-4.971,10.561,1.244,4.351-.62,6.834-4.351,7.454a68.054,68.054,0,0,1-10.561,3.107c-3.107.62-4.351,2.483-4.971,5.591-1.244,7.454-3.107,8.7-10.561,9.317-10.561.62-16.776,9.941-13.668,19.883,1.244,4.351,1.864,8.7,4.351,13.049s.62,11.181-4.351,13.668-9.941,6.215-16.776,4.351a123.878,123.878,0,0,0-14.912-2.483c-7.454-1.244-8.7-.62-12.424,6.834-1.244,2.483-3.727,4.971-4.351,8.078,1.244,1.864,3.107,1.864,4.351,2.483,8.7,3.107,10.561,4.971,9.317,13.668-1.244,9.317,1.244,17.4,3.727,26.094,1.244,4.351,1.244,6.215-4.351,8.7,1.864-13.049-5.591-23.61-3.727-36.034,1.244-4.971-2.483-8.078-8.7-9.317-8.7-1.864-17.4-2.483-26.094,1.244-3.107-3.107,1.864-3.727,1.244-6.215-3.727-2.483-8.078-4.351-12.424-6.834-7.454-4.971-14.288-2.483-21.747,0-1.244.62-1.864,1.244-1.244,2.483.62,1.864.62,3.107-1.244,3.727-6.834,1.244-4.351,6.834-5.591,11.181-1.244,3.727,1.863,5.591,3.727,8.078l.62.62c11.181,8.078,10.561,18.64,6.215,29.82-3.107,8.7-8.078,16.152-16.152,21.747-1.244.62-3.107,2.483-4.351.62s-.62-3.107.62-4.351l1.244-1.244c12.424-5.591,12.424-18.015,16.152-28.581,1.244-3.107,0-6.834-2.483-9.317a74.643,74.643,0,0,0-7.454-6.834c-3.107-3.107-4.971-6.215-3.727-10.561,1.244-3.727,1.244-8.078,1.863-11.805.62-2.483-.62-3.107-3.107-3.107-4.351,0-8.078,2.483-8.7,7.454A27.178,27.178,0,0,1,470,193.263c-4.971,8.7-8.078,17.4-11.181,26.713-2.483,8.7-9.941,12.425-16.776,17.4-1.244,1.244-2.483,0-3.727-.62-8.078-3.107-9.317-2.483-13.668,4.351-1.864,3.107-3.727,4.971-6.834,6.215a36.861,36.861,0,0,1-14.288,3.107c-10.561,0-13.049,1.864-16.776,11.805-3.107,9.317-4.351,19.259-4.971,29.2,8.7,1.244,16.776,2.483,24.849,6.834,3.107,1.863,8.7-.62,11.805-6.215,1.863-3.727,4.351-6.834,8.7-5.591a40.064,40.064,0,0,1,14.912,6.834c-4.351,2.483-8.078,0-11.181-.62-3.727-.62-6.215-.62-8.7,3.107-1.244,2.483-4.351,3.727-6.215,5.591-3.727,3.107-7.454,3.727-11.805.62-6.215-4.351-13.668-5.591-21.122-5.591-6.834,0-10.561,4.971-10.561,11.805a11.284,11.284,0,0,1-3.727,8.7c-6.215,6.834-8.7,16.152-11.805,24.23a4.875,4.875,0,0,0,.62,4.971c3.107,3.727,4.971,8.078,9.941,10.561,2.483,1.244,3.107,3.107.62,5.591-3.107,2.483-6.215,4.351-3.727,9.317.62,1.244-.62,1.863-1.863,2.483-1.863.62-1.863,2.483-1.244,4.351,1.244,4.971,1.244,9.317-1.244,13.668-1.863,3.727.62,6.215,3.727,7.454,4.971,2.483,5.591,5.59,4.351,10.561a25.689,25.689,0,0,0-1.244,11.805c.62,4.351-2.483,6.834-3.107,10.561-.62,2.483-.62,4.971,3.107,3.727,8.078-1.863,11.805,1.863,15.532,8.7,2.483,5.591,8.7,8.7,13.668,13.049,1.863,1.863,4.351,2.483,3.107,5.591s1.244,3.727,3.727,4.351a41.118,41.118,0,0,0,8.7.62c7.454-.62,15.532-.62,22.986-1.244,4.971,0,9.317.62,11.805,4.971,1.244,1.864,3.107,2.483,4.971,3.727,4.351,3.107,6.215,10.561,3.107,14.912-.62.62-1.244,1.244-1.864,1.244a2.771,2.771,0,0,1-2.483-1.864c3.107-8.078-4.351-10.561-8.078-15.532-2.483-3.107-5.59-3.727-8.7-3.727a25.548,25.548,0,0,0-6.834.62c-8.7.62-8.7.62-11.805,9.317q-.93,1.866-1.863,3.727c-5.591,10.561-3.107,20.5,1.244,30.444,1.864,3.727,5.591,5.591,9.317,7.454,2.483,1.244,5.591,2.483,6.834,4.971,1.244,1.864.62,3.107-.62,4.351-1.864,1.244-3.727.62-3.727-1.244-1.244-3.727-4.351-4.351-6.834-5.591a17.125,17.125,0,0,1-9.317-9.318c-4.351-10.561-6.834-21.747-.62-32.928,3.727-6.834,2.483-8.7-4.971-10.561-5.59-1.244-11.181-2.483-10.561-9.941-6.215-7.454-13.668-13.668-19.883-21.122-.62-1.244-3.727-.62-5.591-.62-13.668,0-26.094,3.727-38.518,8.7-5.591,1.864-11.181,3.107-16.152,7.454-8.7,7.454-11.181,14.912-8.078,25.474,1.863,6.834-5.591,17.4-13.668,18.015a26.977,26.977,0,0,1-18.015-4.351c-10.561-8.078-23.61-11.805-36.654-12.425-2.483,0-5.591,0-7.454,1.244-5.591,4.351-12.425,5.591-19.259,6.834-12.425,3.107-19.259,13.049-26.094,22.366-1.244,1.864,0,3.107,1.244,4.351,3.727,3.727,7.454,7.454,11.181,11.805,3.107,3.107,6.215,4.351,10.561,3.107s5.591.62,3.727,4.971a13.508,13.508,0,0,1-3.107,4.971c-1.244,1.864-2.483,3.107-2.483,5.591,3.107,1.864,6.834,0,10.561,1.244,1.864.62,3.107,1.864,2.483,3.727s-1.864,1.864-3.727,1.864A51.763,51.763,0,0,1,205.344,553a2.6,2.6,0,0,0-3.727,1.863c-1.244,3.107-2.483,6.215-2.483,9.942.62,3.727,1.244,6.834,6.215,8.078,2.483.62,5.591,1.244,6.834,4.971-5.591,1.244-10.561-1.244-14.912-3.107-2.483-.62-2.483-3.727-2.483-5.591-.62-8.078,1.864-14.912,4.971-22.366,3.107-6.834,3.107-6.834-3.107-10.561-3.107-1.864-4.971-4.351-7.454-6.834a18.959,18.959,0,0,0-4.971-4.971c-4.351-3.727-5.591-3.107-7.454,1.864-2.483,5.591-3.727,11.181-6.215,16.776-3.107,6.834-6.834,8.7-14.288,8.7a18.784,18.784,0,0,1-9.942-3.107c-8.7-3.727-13.049-2.483-18.64,4.971a13.018,13.018,0,0,1-2.483,3.727c-1.244,1.864-3.107,1.244-4.351,0s-1.864-3.107-.62-4.351c4.971-8.7,18.015-13.049,27.957-9.317,13.668,5.591,15.532,4.351,19.883-8.7,8.078-21.747,11.805-27.337,28.581-45.352-7.454-6.215-6.834-15.532-8.7-24.23-1.244-6.215-3.727-11.181-9.317-14.912-9.942-6.215-17.4-14.912-27.957-21.122-3.757-.013-7.484-2.5-8.728-7.467ZM291.064,301.987c-1.244,1.244-3.107,1.244-4.971,1.244q-19.574.93-39.142,1.863c-4.971,0-8.078,1.863-11.181,6.215-3.727,5.59-3.727,11.805-4.351,18.015-.62,4.351,1.244,4.971,4.971,4.971,11.805-.62,24.23,1.244,36.034,1.244a75.388,75.388,0,0,0,11.805-.62c6.215-.62,7.454-.62,6.215-8.078-.62-5.591,0-11.181.62-16.776.624-3.107,1.244-5.591,0-8.078a5.122,5.122,0,0,1,4.351,6.215c-.62,4.351-.62,9.317-1.244,13.668-1.863,12.425-1.244,13.049,11.805,12.425h.62c3.727,0,5.591-1.864,6.215-5.591s.62-7.454,1.244-11.181c.62-7.454,0-8.7-6.834-12.425-1.863-1.244-4.351-1.863-6.215-3.107-3.107-2.488-6.215-1.868-9.942,0ZM258.136,409.467c2.483,2.483,2.483,3.727,2.483,5.591,0,8.078,0,16.776-1.864,24.849-1.244,4.971,0,6.215,4.351,5.591,13.668-1.244,27.957-1.244,41.626-1.863,3.727,0,7.454-1.864,9.941,2.483.62,1.244,1.863,1.244,3.107.62,4.351-1.863,8.078-3.727,12.425-5.591,1.863-.62,1.863-1.863,1.863-3.727,0-8.078,1.244-16.776-.62-24.849-1.244-4.966-2.488-6.206-8.7-6.206-6.834,0-13.049,0-19.883.62-13.049,1.244-25.474-.62-38.518.62-9.317.62-19.259,1.863-29.2.62-4.351-.62-8.078,1.244-10.561,6.215-.62-6.215-4.351-6.215-8.078-5.59q-16.771.93-33.547,1.863c-9.317.62-18.015,2.483-27.337,2.483-4.351,0-6.834,3.107-8.078,6.834s1.864,4.971,4.351,6.834c5.591,4.351,11.805,8.7,17.4,13.668,5.591,4.351,11.805,4.971,18.64,4.351,2.483,0,3.727-1.244,3.107-3.727-1.244-6.215-1.864-13.049-2.483-19.259,0-2.483-2.483-7.454,1.864-7.454,3.107,0,3.107,4.971,3.107,8.078v14.288c.62,8.7,1.244,9.317,9.317,9.317,3.727,0,7.454-1.244,11.181,0,11.181,3.107,22.986,0,34.172.62,3.727.62,4.971-1.863,5.591-4.971a23.386,23.386,0,0,1,.62-6.215c1.864-8.7,1.864-16.771,3.727-26.094Zm-73.309,39.762c7.454,10.561,8.078,11.805,8.7,23.61,0,3.107,0,5.59,1.864,8.078,4.971,6.834,10.561,8.078,19.259,4.351,3.107-1.244,4.971-3.107,4.971-6.834,0-2.483-.62-4.351-.62-6.834a55.39,55.39,0,0,1-1.868-13.673c0-2.483,0-4.971,2.483-5.591,2.483,0,2.483,3.107,2.483,4.971.62,6.834.62,13.049.62,19.883,0,2.483.62,4.971,3.727,4.351,6.215-1.244,13.668,0,19.259-1.244,12.425-3.727,25.474-3.727,37.9-3.727h7.454c1.244,0,3.107,0,3.107-1.864,0-7.454,1.863-15.532-.62-22.986-.62-3.107-1.863-3.727-4.971-3.107-9.941,2.483-20.5.62-30.444,1.244-14.288,1.244-28.581,1.863-42.87.62-9.309-1.868-19.251-1.248-30.432-1.248ZM599.842,116.844c-2.483,3.727-6.215,1.864-9.317,1.864s-5.591,1.244-4.971,4.971V133c0,1.244-.62,3.107-2.483,3.107s-1.863-1.244-1.863-3.107c.62-2.483-.62-4.971-1.244-7.454-1.244-6.215-2.483-7.454-8.7-6.834-6.834.62-13.049,0-19.883.62-14.288.62-16.776,3.727-12.424,18.015v.62c.62,3.727,3.107,4.971,6.834,4.971,8.078-.62,16.776,0,24.849,0h22.366c4.971,0,6.215-1.864,4.351-5.591-2.483-6.215,0-10.561,2.483-15.532,2.483-6.215,2.483-6.834-3.107-11.181a19.448,19.448,0,0,0-6.215-3.107A25.449,25.449,0,0,1,578.1,96.961c-1.864-3.107-3.107-7.454-5.591-9.317-3.107-1.864-7.454.62-11.181-.62a.607.607,0,0,0-.62.62c-.62,2.483,0,5.591.62,8.078.62,3.727-.62,7.454-1.244,11.181-.62,1.864-1.864,1.864-3.107,1.244s-1.244-1.864-1.244-3.107c0-.62.62-1.864.62-2.483,1.244-6.215-2.483-18.015-5.59-18.64-8.078-1.244-11.181,4.971-15.532,9.942l-.62.62a43.7,43.7,0,0,1-12.424,13.668c-1.244.62-2.483,1.864-2.483,3.107.62,1.244,1.244,1.864,2.483,1.864,7.454,0,15.532,1.244,22.986.62,16.152-1.244,31.684-.62,47.84-1.244,3.107,1.244,5.591,1.244,6.834,4.351ZM245.091,404.5c13.668,1.863,26.094-1.863,39.142-.62,3.107.62,3.727-1.864,3.727-4.971,0-6.834-2.483-13.668-1.244-20.5.62-4.351-1.863-5.591-5.591-5.591-16.152,0-32.308,1.863-48.46.62h-2.483c-2.483.62-4.351,1.244-3.727,4.351a134.767,134.767,0,0,1,0,22.366c0,3.107,1.244,4.351,4.351,4.351,4.962.615,9.933,0,14.284,0Zm16.152-36.034c4.351,1.864,8.078,1.864,11.805,1.864,13.668-.62,27.337,0,41.006-.62,11.181-1.244,11.181-.62,11.181-11.805,0-4.971,1.244-10.561-6.215-11.805-1.244,0-1.864-1.864-2.483-3.107-1.244-4.351-4.971-4.971-8.7-4.971-13.049.62-25.474.62-38.518.62-4.971,0-6.215,1.244-6.215,6.215,0,2.483.62,4.351.62,6.834-.62,5.591,1.244,11.181-2.483,16.776Zm92.572,32.928c-1.863-4.351-.62-7.454.62-10.561,1.244-3.727,1.244-6.834,1.244-10.561-.62-6.834-.62-6.834-7.454-7.454-17.4-.62-34.791-.62-52.187,1.244-3.107,0-4.351,1.244-4.971,4.971-1.244,6.834,1.863,13.049,1.863,19.259,0,4.351,2.483,5.591,6.215,5.591,18.011-1.248,35.406-1.868,54.669-2.488ZM218.376,370.947h33.547c3.727,0,5.591-1.244,6.834-5.591,2.483-7.454,0-14.912,0-21.747,0-3.727-1.244-4.971-4.971-4.971-11.805-1.244-24.23.62-35.415,3.107-16.152,3.107-16.776,4.971-14.912,21.747.62,7.454,1.244,8.078,8.7,8.078,1.248-1.244,3.736-.624,6.219-.624Zm-9.317,34.791h9.322c4.971-.62,6.215-1.244,4.971-6.215a62.908,62.908,0,0,1-1.244-18.64c0-4.351-1.244-6.215-5.591-6.215-12.425-.62-24.849,1.244-37.279,3.107-1.864,0-3.107,1.244-4.351,2.483-3.727,6.834-8.7,13.049-9.317,21.122-.62,4.351,0,5.59,4.971,6.215h17.4c6.83-.615,13.664-2.479,21.122-1.859ZM541.444,178.349c3.107-.62,5.591-.62,8.7-1.244,1.863-.62,4.351-2.483,3.727-4.351-3.107-6.834-.62-14.288-1.863-21.122-.62-3.727-3.107-3.727-5.591-3.107-8.7.62-16.776,1.244-25.474,1.864-1.244,0-2.483.62-4.351,1.244-4.351,1.244-4.971,6.215-6.215,9.317-1.244,3.727,3.107,3.727,5.59,5.591a46.461,46.461,0,0,0,7.454,4.351c5.6,3.112,11.19,6.219,18.024,7.458ZM362.515,406.98c-7.454,0-14.288-.62-21.122-.62h-2.483c-3.727,0-4.971,1.244-3.727,5.591,1.244,4.971,2.483,9.941,1.863,14.912-.62,14.288-.62,13.668,14.288,11.181.62,0,1.244-.62,1.863-.62,4.351-.62,6.215-3.107,6.215-6.834-.628-8.078,1.239-15.532,3.1-23.61Zm-75.8-108.1c-11.181-4.971-12.425-15.532-15.532-26.094a15.725,15.725,0,0,0-6.834,13.668c0,3.107.62,6.215.62,9.317,0,1.244-.62,2.483-1.864,2.483-1.863,0-1.863-1.244-1.863-1.863-1.864-3.727-.62-7.454-1.244-11.181,0-2.483-1.244-3.727-4.351-3.107-13.049,2.483-14.288,4.351-13.049,18.015,14.293.624,29.2-1.239,44.118-1.239Zm55.913,69.587c3.107,0,5.591.62,8.7,0,3.727,0,8.078-3.727,9.317-7.454.62-3.107-1.864-4.351-3.727-6.215l-3.727-3.727c-4.971-6.834-4.971-6.834-12.425-4.351-1.863.62-3.107,1.244-4.971,1.244-4.351.62-5.591,2.483-5.591,7.454-.62,13.049-.62,13.049,12.425,13.049ZM558.837,160.334a15.946,15.946,0,0,1,9.317-.62,23.359,23.359,0,0,1,6.834.62c4.971,1.864,10.561,1.864,16.152,1.864,4.971,0,11.181-4.971,12.424-9.317.62-2.483-1.244-5.591-3.727-4.971-11.181,2.483-21.747,0-32.928.62-9.317.62-8.7-.62-8.7,9.942a5.01,5.01,0,0,0,.624,1.864ZM256.895,483.4c8.7,3.107,16.152,8.078,23.61,11.805,5.591,3.107,14.288,0,17.4-6.215,1.863-3.107.62-6.215-.62-8.7-1.244-3.107-3.727-.62-6.215-.62H275.534c-5.591.62-11.805,0-18.64,3.727ZM184.2,372.19a54.847,54.847,0,0,1,10.561-1.244c3.727,0,4.351-2.483,3.727-4.971a120.977,120.977,0,0,1-1.244-14.912c0-3.107-1.864-3.107-4.351-1.863a6.575,6.575,0,0,0-4.351,3.727c-1.864,5.591-4.971,9.942-8.078,14.912-1.235,3.107-.611,4.351,3.736,4.351ZM519.7,145.423c3.727,1.864,7.454-1.244,11.181-.62,3.107.62,3.727-1.864,3.107-4.351a87.686,87.686,0,0,1-2.483-12.425c-.62-6.215-2.483-8.078-6.215-6.834-5.591,1.244-3.107,6.215-1.863,8.078,1.863,4.971,0,8.078-1.864,11.805-.624.62-2.488,1.864-1.863,4.347ZM301.627,458.549c3.727-3.107,7.454-4.351,9.941-8.078C301.627,447.363,300.388,447.987,301.627,458.549Z" fill="#9d612b" opacity="0.42"/>
  </g>
</svg>
