<svg xmlns="http://www.w3.org/2000/svg" width="13.911" height="13.911" viewBox="0 0 13.911 13.911">
  <g id="noun-info-1829451" transform="translate(85.595 14.341) rotate(180)">
    <g id="Group_314" data-name="Group 314">
      <path id="Path_380" data-name="Path 380" d="M84.2,3.218a6.94,6.94,0,1,1-1.636-1.572l-.009.012a.61.61,0,0,1,.263.494.624.624,0,0,1-.623.624.613.613,0,0,1-.41-.161l0,0A5.672,5.672,0,1,0,83.2,3.941l.007,0a.609.609,0,0,1-.122-.35A.616.616,0,0,1,83.7,2.97a.6.6,0,0,1,.485.254Zm-4.94,1.531V8.175a.616.616,0,0,1-1.232,0V4.749a.616.616,0,0,1,1.232,0Zm-.616,4.657a.616.616,0,1,1-.616.616A.615.615,0,0,1,78.639,9.406Z" fill="#fff" fill-rule="evenodd"/>
    </g>
  </g>
</svg>
