<svg xmlns="http://www.w3.org/2000/svg" width="34.234" height="32.259" viewBox="0 0 34.234 32.259">
  <g id="noun-pla-4974736" transform="translate(-157.873 -98.595)">
    <path id="Path_540" data-name="Path 540" d="M290.122,101.927a.393.393,0,0,1,.676,0l2.586,4.475c.119-.049.237-.091.356-.136a23.29,23.29,0,0,1,2.718-.816l-2.942-5.089a3.524,3.524,0,0,0-6.109,0l-2.81,4.865,2.718,1.57,2.81-4.869Z" transform="translate(-115.469)" fill="#1a1818"/>
    <path id="Path_541" data-name="Path 541" d="M307.3,339.231l-2.485-4.3a10.714,10.714,0,0,1-1.57,3.546l1.341,2.324a.392.392,0,0,1,0,.395.383.383,0,0,1-.342.2h-14.9V339.72l-4.521,3.235,4.521,3.239v-1.671h14.9a3.527,3.527,0,0,0,3.054-5.291Z" transform="translate(-115.669 -215.34)" fill="#1a1818"/>
    <path id="Path_542" data-name="Path 542" d="M168.759,202.975l1.463.847-.282-2.889-.216-2.211-.043-.427-.392.177-2.1.952-2.569,1.164,1.424.82-7.694,13.325a3.529,3.529,0,0,0,3.058,5.293h6.247v-3.138h-6.247a.393.393,0,0,1-.342-.589l7.694-13.325Z" transform="translate(0 -90.844)" fill="#1a1818"/>
    <path id="Path_543" data-name="Path 543" d="M289.316,208.337c1.2-2.091,5.075-7.824,9.7-9.96a70,70,0,0,0-8.652,10.121,23.976,23.976,0,0,0,5.759-.736,6.429,6.429,0,0,0-.363.83c1.067-.725,4.267-2.586,6.991-2.536a37.233,37.233,0,0,0-6.525,2.858c1.883.9,8.687,3.524,10.55-4.177a13.1,13.1,0,0,0-3.991-.793,9.04,9.04,0,0,0,1.389-2.137,10.291,10.291,0,0,0,.863-2.9,16.672,16.672,0,0,0-.321-6.023q-1.539.178-2.883.468a22.415,22.415,0,0,0-3.113.886c-10.3,3.752-9.556,12.857-9.406,14.1Z" transform="translate(-119.702 -85.913)" fill="#9d612b"/>
  </g>
</svg>
