<svg xmlns="http://www.w3.org/2000/svg" width="36.457" height="36.458" viewBox="0 0 36.457 36.458">
  <g id="noun-button-4548405" transform="translate(-83.129 -13.122)">
    <path id="Path_533" data-name="Path 533" d="M316.658,74.882A9.26,9.26,0,0,0,298.5,72.324,13.473,13.473,0,0,1,309.952,83.78a9.231,9.231,0,0,0,6.706-8.9ZM305,73.986a1.494,1.494,0,1,1,1.057-.438A1.495,1.495,0,0,1,305,73.986Zm4.781,5.379a1.494,1.494,0,1,1,1.057-.438A1.495,1.495,0,0,1,309.785,79.365Zm0-5.379a1.494,1.494,0,1,1,1.057-.438A1.495,1.495,0,0,1,309.785,73.986Z" transform="translate(-200.657 -48.91)"/>
    <path id="Path_534" data-name="Path 534" d="M257.14,13.122a12.79,12.79,0,0,0-12.582,10.287,13.49,13.49,0,0,1,1.823-.127c.425,0,.844.022,1.259.06A9.858,9.858,0,1,1,259.77,35.471c.039.415.06.837.06,1.259a13.492,13.492,0,0,1-.127,1.823,12.845,12.845,0,0,0-2.563-25.432Z" transform="translate(-150.403 0)"/>
    <path id="Path_535" data-name="Path 535" d="M95.978,170.618a12.865,12.865,0,1,0,9.082,3.768,12.848,12.848,0,0,0-9.082-3.768Zm0,22.712a9.873,9.873,0,1,1,6.97-2.892,9.863,9.863,0,0,1-6.97,2.892Z" transform="translate(0 -146.738)" fill="#9d612b"/>
    <path id="Path_536" data-name="Path 536" d="M144.889,223.12a9.274,9.274,0,1,0,6.548,2.716A9.265,9.265,0,0,0,144.889,223.12ZM142.5,236.867a1.494,1.494,0,1,1,1.057-.438A1.495,1.495,0,0,1,142.5,236.867Zm0-5.379a1.494,1.494,0,1,1,1.057-.438A1.495,1.495,0,0,1,142.5,231.488Zm4.781,5.379a1.494,1.494,0,1,1,1.057-.438A1.495,1.495,0,0,1,147.28,236.867Zm0-5.379a1.494,1.494,0,1,1,1.057-.438A1.495,1.495,0,0,1,147.28,231.488Z" transform="translate(-48.911 -195.654)" fill="#9d612b"/>
  </g>
</svg>
