<svg xmlns="http://www.w3.org/2000/svg" width="27.495" height="36.458" viewBox="0 0 27.495 36.458">
  <g id="noun-win-win-deal-1431083" transform="translate(-112.964 -82.688)">
    <g id="noun-milestone-3242316" transform="translate(-45.766 56.298)">
      <path id="Path_526" data-name="Path 526" d="M322.484,96.123c-5.6,4.534-11.194-1.215-16.784-2.142V80.113c5.347.889,10.7,6.182,16.047,2.681a.394.394,0,0,1,.592.463c-1.086,2.863-2.18,5.339-3.266,7.549a25.989,25.989,0,0,0,3.448,4.739.39.39,0,0,1-.038.577Z" transform="translate(-136.406 -49.861)" fill="#9d612b"/>
      <path id="Path_527" data-name="Path 527" d="M172.294,410.12c0,1.572-3.046,2.84-6.782,2.84s-6.782-1.268-6.782-2.84c0-.98,1.192-1.846,3-2.354V409c0,1.344,1.519,2.248,3.782,2.248s3.782-.9,3.782-2.248v-1.23C171.1,408.275,172.294,409.14,172.294,410.12Z" transform="translate(0 -353.963)"/>
      <path id="Path_528" data-name="Path 528" d="M172.294,470.64v1.686c0,1.564-3.038,2.84-6.782,2.84s-6.782-1.276-6.782-2.84V470.64c1.466,1.2,4.139,1.815,6.782,1.815S170.828,471.84,172.294,470.64Z" transform="translate(0 -412.317)"/>
      <path id="Path_529" data-name="Path 529" d="M221.633,27.5c0,.61-1.183,1.105-2.64,1.105s-2.64-.5-2.64-1.105,1.183-1.105,2.64-1.105S221.633,26.886,221.633,27.5Z" transform="translate(-53.482)"/>
      <path id="Path_530" data-name="Path 530" d="M221.606,64.9V90.773c0,.615-1.185,1.109-2.643,1.109s-2.643-.494-2.643-1.109V64.9a6.264,6.264,0,0,0,5.286,0Z" transform="translate(-53.451 -35.739)"/>
    </g>
  </g>
</svg>
