<svg xmlns="http://www.w3.org/2000/svg" width="33.496" height="33.277" viewBox="0 0 33.496 33.277">
  <g id="noun-bank-3095030" transform="translate(-139.996 -72.748)">
    <path id="Path_524" data-name="Path 524" d="M146.5,80.169l14.448-7.224a1.86,1.86,0,0,1,1.664,0l14.448,7.224a1.861,1.861,0,0,1-.832,3.525h-28.9a1.861,1.861,0,0,1-.832-3.525Z" transform="translate(-5.039)" fill="#1a1818"/>
    <path id="Path_525" data-name="Path 525" d="M145.579,271.548V256.66H149.3v14.888h5.583V256.66h3.722v14.888h5.583V256.66h3.722v14.888h3.722a1.861,1.861,0,1,1,0,3.722H141.857a1.861,1.861,0,1,1,0-3.722Z" transform="translate(0 -169.244)" fill="#9d612b"/>
  </g>
</svg>
