<svg xmlns="http://www.w3.org/2000/svg" width="36.159" height="31.639" viewBox="0 0 36.159 31.639">
  <g id="noun-price-tag-3803922" transform="translate(-70 -35)">
    <path id="Union_1" data-name="Union 1" d="M9.6,31.639a.574.574,0,0,1-.446-.221l-5.65-7.345a.56.56,0,0,1,0-.689l.966-1.249A9.5,9.5,0,0,1,0,13.559a.565.565,0,1,1,1.13,0,8.915,8.915,0,0,0,2.186,6.2,10.693,10.693,0,0,0,5.864,3.085c.412.085.8.147,1.136.192h0a1.7,1.7,0,1,1-.09,1.108c-.35-.051-.74-.113-1.164-.209a2.805,2.805,0,1,0,.723-2.119,11.588,11.588,0,0,1-3.949-1.458L9.158,16.04a.557.557,0,0,1,.447-.22H33.9a2.26,2.26,0,0,1,2.26,2.26h0v11.3a2.263,2.263,0,0,1-2.26,2.26Zm-5.9-13.221h0l.243-3.972h0a.565.565,0,0,1,.248-.435L24.311.39a2.26,2.26,0,0,1,3.141.6l6.333,9.356a2.256,2.256,0,0,1-.6,3.136l-1.78,1.2H9.605a1.7,1.7,0,0,0-1.345.661L4.916,19.7A7.048,7.048,0,0,1,3.707,18.418Z" transform="translate(70 35)" fill="#9d612b"/>
    <path id="Path_95" data-name="Path 95" d="M127.4,53.418l.243-3.972h0a.565.565,0,0,1,.248-.435L148,35.39a2.26,2.26,0,0,1,3.141.6l6.333,9.356a2.256,2.256,0,0,1-.6,3.136l-1.78,1.2H133.3a1.7,1.7,0,0,0-1.345.661L128.609,54.7a7.05,7.05,0,0,1-1.209-1.277Z" transform="translate(-53.694 0)"/>
  </g>
</svg>
