<svg xmlns="http://www.w3.org/2000/svg" width="38.019" height="21.111" viewBox="0 0 38.019 21.111">
  <g id="noun-delivery-3383839" transform="translate(-140.393 -163.332)">
    <path id="Path_93" data-name="Path 93" d="M173.127,167.713v5.662h4.761a10.079,10.079,0,0,0-4.761-5.662Zm5.285,8.833v3.7a1.057,1.057,0,0,1-1.057,1.057h-3.7a5.294,5.294,0,0,0-4.228-5.179v-5.392a1.058,1.058,0,0,0-2.114,0v5.392a5.295,5.295,0,0,0-4.228,5.179h-7.928a5.285,5.285,0,1,0-10.57,0h-1.057a1.057,1.057,0,0,1-1.057-1.057V174.96h-1.057a1.058,1.058,0,0,1,0-2.114h5.814a1.058,1.058,0,0,0,0-2.114h-4.757v-6.342a1.057,1.057,0,0,1,1.057-1.057H168.37a1.057,1.057,0,0,1,1.057,1.057v2.171a9.929,9.929,0,0,1,1.586.306v7.564a1.057,1.057,0,0,0,1.057,1.057h6.283a10.141,10.141,0,0,1,.059,1.057ZM166.256,166.5H145.643a1.058,1.058,0,0,0,0,2.114h20.613A1.058,1.058,0,0,0,166.256,166.5Z" fill="#9d612b"/>
    <ellipse id="Ellipse_20" data-name="Ellipse 20" cx="2.775" cy="3.172" rx="2.775" ry="3.172" transform="translate(147.135 178.099)"/>
    <circle id="Ellipse_21" data-name="Ellipse 21" cx="3.172" cy="3.172" r="3.172" transform="translate(165.374 178.099)"/>
  </g>
</svg>
