<svg xmlns="http://www.w3.org/2000/svg" width="34.438" height="33.707" viewBox="0 0 34.438 33.707">
  <g id="noun-market-2468923" transform="translate(-131.434 -65.823)">
    <path id="Path_531" data-name="Path 531" d="M131.434,206.459h34.438v-4.031h-1.588v-19.61a4.993,4.993,0,0,1-5.432-.92,4.967,4.967,0,0,1-6.8,0,4.967,4.967,0,0,1-6.8,0,4.967,4.967,0,0,1-6.8,0,4.985,4.985,0,0,1-5.432.92v19.611h-1.589v4.031Zm15.78-4.031h-8.178V190.689h8.178Zm3.74-15.539h9.732v6.45h-9.732Z" transform="translate(0 -106.93)" fill="#9d612b" fill-rule="evenodd"/>
    <path id="Path_532" data-name="Path 532" d="M134.275,66.355h33.977c0,1.921.008,3.862.008,5.772,0,4.5-6.8,4.5-6.8,0,0,4.5-6.8,4.5-6.8,0,0,4.5-6.8,4.5-6.8,0,0,4.5-6.8,4.5-6.8,0,0,4.5-6.8,4.5-6.8,0,0-1.91.008-3.852.008-5.772Z" transform="translate(-2.611 -0.532)" fill="#1a1818" fill-rule="evenodd"/>
  </g>
</svg>
