<svg xmlns="http://www.w3.org/2000/svg" width="91.911" height="91.911" viewBox="0 0 91.911 91.911">
  <path id="Path_514" data-name="Path 514" d="M140.906,119.411A45.706,45.706,0,1,0,95.2,73.706,45.709,45.709,0,0,0,140.906,119.411Zm0-81.356a35.65,35.65,0,1,1-35.65,35.65A35.7,35.7,0,0,1,140.906,38.055Zm0,68.965a33.314,33.314,0,1,0-33.314-33.314A33.334,33.334,0,0,0,140.906,107.02Zm11.071-51.394a7.414,7.414,0,1,1-7.414,7.414A7.39,7.39,0,0,1,151.977,55.627Zm0,21.329a7.414,7.414,0,1,1-7.414,7.414A7.39,7.39,0,0,1,151.977,76.956Zm-22.04-21.329a7.414,7.414,0,1,1-7.414,7.414A7.39,7.39,0,0,1,129.936,55.627Zm0,21.329a7.414,7.414,0,1,1-7.414,7.414A7.39,7.39,0,0,1,129.936,76.956Z" transform="translate(-94.95 -27.75)" fill="none" stroke="#9d612b" stroke-width="0.5" opacity="0.45"/>
</svg>
