<svg xmlns="http://www.w3.org/2000/svg" width="31.589" height="34.626" viewBox="0 0 31.589 34.626">
  <g id="noun-shine-3562221" transform="translate(-94.569 -0.004)">
    <path id="Path_330" data-name="Path 330" d="M102.394,14.35l.822,2.974.835-2.974a6.951,6.951,0,0,1,4.865-4.865l2.974-.822-2.974-.835a6.965,6.965,0,0,1-4.865-4.852L103.229,0l-.835,2.974a6.977,6.977,0,0,1-4.852,4.852l-2.974.835,2.974.822A6.964,6.964,0,0,1,102.394,14.35Zm.822-9.807a8.346,8.346,0,0,0,4.147,4.121,8.3,8.3,0,0,0-4.134,4.134,8.348,8.348,0,0,0-4.134-4.134,8.384,8.384,0,0,0,4.134-4.134Z" fill="#fff"/>
    <path id="Path_331" data-name="Path 331" d="M340.664,108.452a6.977,6.977,0,0,1-4.865-4.865l-.822-2.974-.756,2.974a6.978,6.978,0,0,1-4.865,4.865l-2.974.822,2.974.822h0a6.965,6.965,0,0,1,4.865,4.852l.756,2.921.822-2.974a6.965,6.965,0,0,1,4.865-4.852l2.974-.822Zm-5.686,4.956a8.346,8.346,0,0,0-4.134-4.134,8.388,8.388,0,0,0,4.134-4.134,8.386,8.386,0,0,0,4.134,4.134A8.346,8.346,0,0,0,334.978,113.409Z" transform="translate(-217.48 -94.389)" fill="#fff"/>
    <path id="Path_332" data-name="Path 332" d="M167.352,282.864l-.822-2.974-.861,2.974a6.978,6.978,0,0,1-4.825,4.865l-3,.822,2.974.822h0a6.978,6.978,0,0,1,4.852,4.865l.822,2.974.822-2.974a6.964,6.964,0,0,1,4.878-4.865l2.961-.822-2.961-.821A6.965,6.965,0,0,1,167.352,282.864Zm-.822,9.82a8.346,8.346,0,0,0-4.134-4.134,8.388,8.388,0,0,0,4.134-4.134,8.348,8.348,0,0,0,4.134,4.134A8.294,8.294,0,0,0,166.53,292.684Z" transform="translate(-59.362 -262.58)" fill="#fff"/>
  </g>
</svg>
