<svg xmlns="http://www.w3.org/2000/svg" xmlns:xlink="http://www.w3.org/1999/xlink" width="41.364" height="42.593" viewBox="0 0 41.364 42.593">
  <defs>
    <clipPath id="clip-path">
      <rect id="Rectangle_407" data-name="Rectangle 407" width="41.364" height="42.593" transform="translate(-3 -4)" fill="none" stroke="#fff" stroke-width="0.8"/>
    </clipPath>
    <clipPath id="clip-path-2">
      <rect id="Rectangle_407-2" data-name="Rectangle 407" width="9.392" height="9.671" transform="translate(0 0)" fill="none" stroke="#fff" stroke-width="0.8"/>
    </clipPath>
  </defs>
  <g id="Group_178" data-name="Group 178" transform="translate(-765.818 -6132.204)">
    <g id="Group_173" data-name="Group 173" transform="translate(768.818 6136.204)">
      <g id="Group_171" data-name="Group 171" clip-path="url(#clip-path)">
        <path id="Path_329" data-name="Path 329" d="M8.677,34.772c6.229,4.476,16.555,2.148,22.678-5.977S37.215,11.1,30.85,5.347c-.124-.113-3.6-2.711-3.6-2.711C20.828-1.772,10.969.959,4.974,8.915s-5.9,18.186.112,23.138c0,0,3.455,2.622,3.591,2.719ZM6.573,10.12c5.279-7,14.031-9.312,19.551-5.153s5.714,13.209.435,20.213S12.528,34.492,7.009,30.333,1.295,17.125,6.573,10.12ZM4.926,8.833C11.017.751,21.117-1.912,27.486,2.887s6.593,15.242.5,23.325S11.8,36.957,5.428,32.158s-6.594-15.242-.5-23.325Z" transform="translate(-0.463 -0.462)" fill="none" stroke="#fff" stroke-miterlimit="10" stroke-width="0.8"/>
      </g>
    </g>
    <g id="Group_174" data-name="Group 174" transform="translate(778.818 6151.204)">
      <g id="Group_171-2" data-name="Group 171" transform="translate(-3 -4)" clip-path="url(#clip-path-2)">
        <path id="Path_329-2" data-name="Path 329" d="M3.609,4.538c1.2-1.59,3.186-2.114,4.439-1.17s1.3,3,.1,4.59-3.186,2.114-4.439,1.17-1.3-3-.1-4.59Z" transform="translate(-1.541 -1.436)" fill="none" stroke="#fff" stroke-miterlimit="10" stroke-width="0.8"/>
      </g>
    </g>
    <g id="Group_175" data-name="Group 175" transform="translate(787.818 6154.204)">
      <g id="Group_171-3" data-name="Group 171" transform="translate(-3 -4)" clip-path="url(#clip-path-2)">
        <path id="Path_329-3" data-name="Path 329" d="M3.609,4.538c1.2-1.59,3.186-2.114,4.439-1.17s1.3,3,.1,4.59-3.186,2.114-4.439,1.17-1.3-3-.1-4.59Z" transform="translate(-1.541 -1.436)" fill="none" stroke="#fff" stroke-miterlimit="10" stroke-width="0.8"/>
      </g>
    </g>
  </g>
</svg>
